<?xml version="1.0" encoding="UTF-8"?>
<svg width="23px" height="24px" viewBox="0 0 23 24" version="1.1" xmlns="http://www.w3.org/2000/svg" xmlns:xlink="http://www.w3.org/1999/xlink">
    <title>vscode.042d7470</title>
    <defs>
        <linearGradient x1="-14.8202457%" y1="50%" x2="63.8353434%" y2="128.655483%" id="linearGradient-1">
            <stop stop-color="#FFFFFF" stop-opacity="0.18" offset="0%"></stop>
            <stop stop-color="#808080" stop-opacity="0.08" offset="48.7624%"></stop>
            <stop stop-color="#000000" stop-opacity="0.182801" offset="100%"></stop>
        </linearGradient>
        <linearGradient x1="-17.9247872%" y1="40.3299437%" x2="7.472589%" y2="66.6071117%" id="linearGradient-2">
            <stop stop-color="#000000" stop-opacity="0.09" offset="0%"></stop>
            <stop stop-color="#000000" stop-opacity="0.01" offset="100%"></stop>
        </linearGradient>
        <linearGradient x1="97.04788%" y1="48.4503745%" x2="66.780444%" y2="52.0248545%" id="linearGradient-3">
            <stop stop-color="#000000" stop-opacity="0.3" offset="0%"></stop>
            <stop stop-color="#000000" stop-opacity="0.01" offset="100%"></stop>
        </linearGradient>
    </defs>
    <g id="Page-1" stroke="none" stroke-width="1" fill="none" fill-rule="evenodd">
        <g id="Portfolio-Home" transform="translate(-1475.000000, -5587.000000)">
            <g id="Icons" transform="translate(960.000000, 5587.000000)">
                <g id="vscode.042d7470" transform="translate(515.000000, 0.000000)">
                    <rect id="Rectangle" fill="#000000" fill-rule="nonzero" transform="translate(10.872455, 11.999979) rotate(-9.200000) translate(-10.872455, -11.999979) " x="2.2142555" y="1.24592945" width="17.3164" height="21.5081" rx="0.561149"></rect>
                    <rect id="Rectangle" fill="#222222" fill-rule="nonzero" transform="translate(10.872455, 11.999979) rotate(-9.200000) translate(-10.872455, -11.999979) " x="2.2142555" y="1.24592945" width="17.3164" height="21.5081" rx="0.561149"></rect>
                    <rect id="Rectangle" fill="url(#linearGradient-1)" fill-rule="nonzero" transform="translate(10.872455, 11.999979) rotate(-9.200000) translate(-10.872455, -11.999979) " x="2.2142555" y="1.24592945" width="17.3164" height="21.5081" rx="0.561149"></rect>
                    <path d="M11.4197,5.58347 L12.9384,15.571 C12.9469,15.6269 12.9983,15.6652 13.0531,15.6565 C13.067,15.6543 13.0804,15.6491 13.0922,15.6413 L15.2212,14.2359 C15.2545,14.2138 15.272,14.1739 15.2658,14.1339 L14.0319,6.17687 C14.0256,6.13643 13.9963,6.10368 13.9574,6.09361 L11.5436,5.46851 C11.4899,5.45459 11.4353,5.48775 11.4216,5.54257 C11.4183,5.55594 11.4176,5.56985 11.4197,5.58347 Z" id="Path" fill="#C69EFF"></path>
                    <path d="M11.4197,5.58347 L12.9384,15.571 C12.9469,15.6269 12.9983,15.6652 13.0531,15.6565 C13.067,15.6543 13.0804,15.6491 13.0922,15.6413 L15.2212,14.2359 C15.2545,14.2138 15.272,14.1739 15.2658,14.1339 L14.0319,6.17687 C14.0256,6.13643 13.9963,6.10368 13.9574,6.09361 L11.5436,5.46851 C11.4899,5.45459 11.4353,5.48775 11.4216,5.54257 C11.4183,5.55594 11.4176,5.56985 11.4197,5.58347 Z" id="Path" fill="#0065C9"></path>
                    <path d="M15.2173,14.2393 L12.9731,15.7245 C12.9382,15.7476 12.893,15.7464 12.8594,15.7215 L4.2784,9.36325 C4.23354,9.33 4.22359,9.26595 4.25618,9.22019 C4.26466,9.20828 4.27556,9.19838 4.28813,9.19115 L5.06338,8.74561 C5.0929,8.72864 5.12882,8.72801 5.1589,8.74393 L15.2089,14.0624 C15.2582,14.0885 15.2774,14.1503 15.2518,14.2005 C15.2438,14.2163 15.2319,14.2296 15.2173,14.2393 Z" id="Path" fill="#0097E3"></path>
                    <path d="M15.2173,14.2393 L12.9731,15.7245 C12.9382,15.7476 12.893,15.7464 12.8594,15.7215 L4.2784,9.36325 C4.23354,9.33 4.22359,9.26595 4.25618,9.22019 C4.26466,9.20828 4.27556,9.19838 4.28813,9.19115 L5.06338,8.74561 C5.0929,8.72864 5.12882,8.72801 5.1589,8.74393 L15.2089,14.0624 C15.2582,14.0885 15.2774,14.1503 15.2518,14.2005 C15.2438,14.2163 15.2319,14.2296 15.2173,14.2393 Z" id="Path" fill="url(#linearGradient-2)"></path>
                    <path d="M14.0021,6.26588 L6.06236,14.4968 C6.04047,14.5195 6.00949,14.5305 5.97852,14.5266 L5.07643,14.4133 C5.02139,14.4064 4.98227,14.3553 4.98904,14.2991 C4.99119,14.2814 4.99785,14.2645 5.00837,14.2502 L11.4364,5.50728 C11.4607,5.4742 11.5022,5.45929 11.5414,5.46946 L13.9552,6.09478 C14.009,6.1087 14.0415,6.16444 14.0278,6.21926 C14.0234,6.23685 14.0145,6.25294 14.0021,6.26588 Z" id="Path" fill="#000000"></path>
                    <path d="M14.0021,6.26588 L6.06236,14.4968 C6.04047,14.5195 6.00949,14.5305 5.97852,14.5266 L5.07643,14.4133 C5.02139,14.4064 4.98227,14.3553 4.98904,14.2991 C4.99119,14.2814 4.99785,14.2645 5.00837,14.2502 L11.4364,5.50728 C11.4607,5.4742 11.5022,5.45929 11.5414,5.46946 L13.9552,6.09478 C14.009,6.1087 14.0415,6.16444 14.0278,6.21926 C14.0234,6.23685 14.0145,6.25294 14.0021,6.26588 Z" id="Path" fill="#0097E3"></path>
                    <polygon id="Path" fill="#0065C9" points="4.42841 17.9684 18.5301 20.3378 22.7068 17.7104"></polygon>
                    <polygon id="Path" fill="url(#linearGradient-3)" points="4.42841 17.9684 18.5301 20.3378 22.7068 17.7104"></polygon>
                    <polygon id="Path" fill="#0097E3" points="15.6828 2.11816 20.3861 3.25613 22.7055 17.7107 18.5365 20.3237"></polygon>
                </g>
            </g>
        </g>
    </g>
</svg>