<?xml version="1.0" encoding="UTF-8"?>
<svg width="24px" height="24px" viewBox="0 0 24 24" version="1.1" xmlns="http://www.w3.org/2000/svg" xmlns:xlink="http://www.w3.org/1999/xlink">
    <title>adobexd.342c7142</title>
    <g id="Page-1" stroke="none" stroke-width="1" fill="none" fill-rule="evenodd">
        <g id="Portfolio-Home" transform="translate(-1056.000000, -5588.000000)">
            <g id="Icons" transform="translate(960.000000, 5587.000000)">
                <g id="adobexd.342c7142" transform="translate(96.000000, 1.000000)">
                    <path d="M19.75,24 L4.25,24 C1.9,24 0,22.0513 0,19.641 L0,4.35897 C0,1.94872 1.9,0 4.25,0 L19.75,0 C22.1,0 24,1.94872 24,4.35897 L24,19.641 C24,22.0513 22.1,24 19.75,24 Z" id="Path" fill="#FF26BE"></path>
                    <path d="M19.37,22.9746 L4.63,22.9746 C2.63,22.9746 1,21.3028 1,19.2515 L1,4.74896 C1,2.69767 2.63,1.02588 4.63,1.02588 L19.36,1.02588 C21.37,1.02588 22.9900458,2.69767 22.9900458,4.74896 L22.9900458,19.2413 C23,21.3028 21.37,22.9746 19.37,22.9746 Z" id="Path" fill="#2E001F"></path>
                    <path d="M9.49001,11.2308 L12.29,16.7488 C12.34,16.8308 12.31,16.9129 12.23,16.9129 L10.49,16.9129 C10.38,16.9129 10.33,16.8821 10.28,16.7795 C10.1146,16.4295 9.94843,16.0795 9.78146,15.7277 L9.78142,15.7276 C9.30256,14.7187 8.81678,13.6953 8.32001,12.6154 L8.30001,12.6154 C7.70001,13.9898 7.04001,15.4359 6.40001,16.7898 C6.35001,16.8718 6.30001,16.9026 6.22001,16.9026 L4.57001,16.9026 C4.47001,16.9026 4.46001,16.8206 4.51001,16.759 L7.25001,11.4052 L4.60001,5.98978 C4.54001,5.90773 4.60001,5.84619 4.66001,5.84619 L6.38001,5.84619 C6.48001,5.84619 6.52001,5.86671 6.56001,5.95901 C7.19001,7.31286 7.83001,8.70773 8.43001,10.0718 L8.45001,10.0718 C9.03001,8.71799 9.67001,7.31286 10.29,5.96927 L10.2918,5.96627 C10.3408,5.88597 10.3712,5.83594 10.47,5.83594 L12.08,5.83594 C12.16,5.83594 12.19,5.89748 12.14,5.97953 L9.49001,11.2308 Z M12.78,12.9022 C12.78,10.5124 14.33,8.64577 16.79,8.64577 C17,8.64577 17.11,8.64577 17.31,8.66628 L17.31,5.94833 C17.31,5.88679 17.36,5.84577 17.41,5.84577 L18.99,5.84577 C19.07,5.84577 19.09,5.87654 19.09,5.92782 L19.09,15.3432 C19.09,15.6201 19.09,15.9688 19.14,16.3483 C19.14,16.4099 19.12,16.4304 19.06,16.4612 C18.22,16.8714 17.34,17.0560575 16.5,17.0560575 C14.33,17.0663 12.78,15.6919 12.78,12.9022 Z M16.73,10.1744 C16.97,10.1744 17.17,10.2154 17.31,10.277 L17.31,15.3539 C17.12,15.436 16.86,15.4667 16.62,15.4667 C15.49,15.4667 14.59,14.7078 14.59,12.8206 C14.59,11.1693 15.47,10.1744 16.73,10.1744 Z" id="Shape" fill="#FFD9F2"></path>
                </g>
            </g>
        </g>
    </g>
</svg>