<?xml version="1.0" encoding="UTF-8"?>
<svg width="24px" height="24px" viewBox="0 0 24 24" version="1.1" xmlns="http://www.w3.org/2000/svg" xmlns:xlink="http://www.w3.org/1999/xlink">
    <title>photoshop.28bb4d0f</title>
    <g id="Page-1" stroke="none" stroke-width="1" fill="none" fill-rule="evenodd">
        <g id="Portfolio-Home" transform="translate(-1107.000000, -5588.000000)">
            <g id="Icons" transform="translate(960.000000, 5587.000000)">
                <g id="photoshop.28bb4d0f" transform="translate(147.000000, 1.000000)">
                    <path d="M1,5.02588 C1,2.81674 2.79086,1.02588 5,1.02588 L19,1.02588 C21.2091,1.02588 23,2.81674 23,5.02588 L23,18.9746 C23,21.1837 21.2091,22.9746 19,22.9746 L5,22.9746 C2.79086,22.9746 1,21.1837 1,18.9746 L1,5.02588 Z" id="Path" fill="#001D26"></path>
                    <path d="M4,0 C1.79086,0 0,1.79086 0,4 L0,20 C0,22.2091 1.79086,24 4,24 L20,24 C22.2091,24 24,22.2091 24,20 L24,4 C24,1.79086 22.2091,0 20,0 L4,0 Z M1,5.02565 C1,2.81651 2.79086,1.02565 5,1.02565 L19,1.02565 C21.2091,1.02565 23,2.8165 23,5.02564 L23,18.9744 C23,21.1835 21.2091,22.9744 19,22.9744 L5,22.9744 C2.79086,22.9744 1,21.1835 1,18.9744 L1,5.02565 Z M6.02,5.49744 C5.94,5.49744 5.8,5.54873 5.8,5.62052 L5.8,16.6462 C5.8,16.7385 5.84,16.7692 5.92,16.7692 L7.45,16.7692 C7.54,16.7692 7.57,16.7282 7.57,16.6462 L7.57,13.0278 C7.57,12.851 7.71332,12.7086 7.88989,12.7166 L7.88991,12.7166 L7.88993,12.7166 C8.01122,12.7222 8.14381,12.7282 8.35,12.7282 C10.61,12.7282 12.45,11.6103 12.45,9.00514 C12.45,7.00514 11.37,5.44616 8.6,5.44616 C7.61,5.44616 6.66,5.46667 6.02,5.49744 Z M7.58,10.2563 C7.58,10.7151 7.93115,11.0874 8.39,11.0874 C9.56,11.0874 10.66,10.6669 10.66,9.03608 C10.66,7.73352 9.87,7.07711 8.54,7.07711 C8.00085,7.07711 7.58,7.52934 7.58,8.0685 L7.58,10.2563 Z M15.12,10.5948 C15.12,10.2563 15.39,9.84604 16.18,9.84604 C16.7412,9.84604 17.3024,9.976 17.7284,10.1963 C17.859,10.2639 18.07,10.3521 18.07,10.205 L18.07,8.79988 C18.07,8.72809 18.05,8.64604 17.97,8.59475 C17.64,8.44091 17.04,8.30757 16.18,8.30757 C14.43,8.30757 13.42,9.40501 13.42,10.7281 C13.42,11.9076 14.01,12.6153 15.43,13.3127 C16.44,13.846 16.67,14.1742 16.67,14.5435 C16.67,15.005 16.34,15.3435 15.55,15.3435 C14.89,15.3435 14.17,15.1589 13.54,14.7383 C13.47,14.6871 13.42,14.7178 13.42,14.8204 L13.42,16.3281 C13.42,16.4101 13.43,16.4614 13.5,16.4922 C13.93,16.7486 14.68,16.9332 15.55,16.9332 C17.2,16.9332 18.42,16.0512 18.42,14.4101 C18.42,13.3127 17.93,12.564 16.36,11.7845 C15.3,11.2204 15.12,10.964 15.12,10.5948 Z" id="Shape" fill="#00C8FF"></path>
                </g>
            </g>
        </g>
    </g>
</svg>