<?xml version="1.0" encoding="UTF-8"?>
<svg width="25px" height="24px" viewBox="0 0 25 24" version="1.1" xmlns="http://www.w3.org/2000/svg" xmlns:xlink="http://www.w3.org/1999/xlink">
    <title>github.1f4698cd</title>
    <g id="Page-1" stroke="none" stroke-width="1" fill="none" fill-rule="evenodd">
        <g id="Portfolio-Home" transform="translate(-1158.000000, -5588.000000)" fill="#000000" fill-rule="nonzero">
            <g id="Icons" transform="translate(960.000000, 5587.000000)">
                <g id="github.1f4698cd" transform="translate(198.000000, 1.000000)">
                    <path d="M12.7068,0.180176 C6.07666,0.180176 0.706787,5.55005 0.706787,12.1802 C0.706787,17.8197 4.5764,22.5002 9.79717,23.8197 C9.73691,23.6695 9.7073,23.4592 9.7073,23.2498 L9.7073,21.2093 L8.20704,21.2093 C7.39717,21.2093 6.64653,20.8498 6.31666,20.189 C5.92653,19.469 5.86628,18.3589 4.87666,17.6685 C4.5764,17.4285 4.8164,17.1885 5.14628,17.2181 C5.7764,17.3979 6.28602,17.8186 6.76602,18.4478 C7.24602,19.0779 7.4564,19.228 8.35615,19.228 C8.77589,19.228 9.43564,19.1984 10.0361,19.1075 C10.366,18.267 10.9359,17.5174 11.6263,17.1579 C7.60653,16.6779 5.68653,14.6976 5.68653,11.9974 C5.68653,10.827 6.19615,9.71686 7.03666,8.75686 C6.76704,7.82647 6.40653,5.90647 7.15717,5.15686 C8.95768,5.15686 10.0372,6.32724 10.3068,6.62647 C11.2065,6.32622 12.1972,6.14647 13.2164,6.14647 C14.2663,6.14647 15.2263,6.32622 16.126,6.62647 C16.3956,6.32622 17.4761,5.15686 19.2756,5.15686 C19.9956,5.87686 19.6658,7.82647 19.3655,8.75686 C20.206,9.68724 20.686,10.827 20.686,11.9974 C20.686,14.6976 18.7956,16.6779 14.8065,17.0976 C15.9167,17.6675 16.6969,19.2872 16.6969,20.4872 L16.6969,23.2202 C16.6969,23.31 16.6673,23.3999 16.6673,23.4898 C21.3468,21.87 24.7068,17.4306 24.7068,12.1802 C24.7068,5.55005 19.3369,0.180176 12.7068,0.180176 Z" id="Path"></path>
                </g>
            </g>
        </g>
    </g>
</svg>