<?xml version="1.0" encoding="UTF-8"?>
<svg width="31px" height="24px" viewBox="0 0 31 24" version="1.1" xmlns="http://www.w3.org/2000/svg" xmlns:xlink="http://www.w3.org/1999/xlink">
    <title>zeplin.b415b1b1</title>
    <g id="Page-1" stroke="none" stroke-width="1" fill="none" fill-rule="evenodd">
        <g id="Portfolio-Home" transform="translate(-1209.000000, -5588.000000)" fill-rule="nonzero">
            <g id="Icons" transform="translate(960.000000, 5587.000000)">
                <g id="zeplin.b415b1b1" transform="translate(249.000000, 1.000000)">
                    <path d="M4.62835,16.5483 L3.05771,17.1222 L2.97412,21.7942 L8.41086,19.8081 C6.54455,19.1831 5.1835,18.0816 4.62835,16.5483 Z" id="Path" fill="#FDBD39"></path>
                    <path d="M5.45046,11.6069 L0,13.598 L3.0577,17.1235 L4.62834,16.5497 C4.07444,15.0214 4.41626,13.2961 5.45046,11.6069 Z" id="Path" fill="#F69833"></path>
                    <path d="M14.6211,4.86415 C7.68105,7.39913 3.20616,12.6313 4.62834,16.5485 L29.7599,7.36794 C28.3377,3.45069 21.5611,2.32916 14.6211,4.86415 Z" id="Path" fill="#FECF33"></path>
                    <path d="M19.7659,19.0535 C26.7059,16.5185 31.1883,11.3101 29.7586,7.36914 L4.62708,16.5485 C6.05675,20.4907 12.8258,21.5885 19.7659,19.0535 Z" id="Path" fill="#EE6723"></path>
                    <path d="M29.7586,7.36768 L4.62836,16.5483 C5.11988,17.9056 6.99742,18.5742 9.62971,18.5742 C12.1971,18.5742 15.4831,17.9393 18.9088,16.688 C25.8489,14.153 30.7304,10.0474 29.7586,7.36768 Z" id="Path" fill="#F69833"></path>
                    <path d="M24.7573,5.34326 C22.1911,5.34326 18.9038,5.97826 15.4781,7.22953 C8.5381,9.76451 3.65652,13.8689 4.62834,16.5486 L29.7599,7.368 C29.2671,6.01069 27.3908,5.34326 24.7573,5.34326 Z" id="Path" fill="#FDBD39"></path>
                    <path d="M23.3688,22.0429 C22.629,22.0429 21.5386,21.3754 20.1264,20.058 C18.456,18.4999 16.5435,16.2169 14.7383,13.6308 C12.9344,11.0446 11.4523,8.45975 10.5641,6.35017 C9.59727,4.05222 9.45879,2.64002 10.1537,2.15098 C10.3146,2.0412 10.5055,1.98506 10.7001,1.99005 C11.2652,1.99005 12.368,2.41047 14.4053,4.4165 L14.4502,4.46016 L14.4439,4.52254 C14.4302,4.66725 14.4177,4.81197 14.4065,4.95543 L14.384,5.23862 L14.1844,5.03777 C11.9888,2.8259 11.0232,2.58762 10.7088,2.58762 C10.619,2.58762 10.5479,2.60509 10.4967,2.64126 C10.1948,2.85334 10.1749,3.89129 11.113,6.11813 C11.985,8.18903 13.4459,10.7352 15.2261,13.2877 C17.0076,15.8414 18.8914,18.0894 20.5331,19.6202 C22.3021,21.2706 23.0993,21.449 23.36,21.449 C23.4499,21.449 23.5222,21.4303 23.5771,21.3917 C23.8952,21.1683 23.8952,20.0568 22.8498,17.659 L22.8011,17.5493 L22.9059,17.4919 C23.0107,17.4345 23.113,17.3783 23.2078,17.3235 L23.3338,17.2523 L23.3925,17.3846 C24.1335,19.0837 24.8271,21.2432 23.9177,21.8819 C23.7567,21.9917 23.5646,22.0479 23.3688,22.0429 Z M23.3688,21.7809 L23.3688,21.9119 L23.3688,21.7809 Z" id="Shape" fill="#EE6723"></path>
                    <path d="M19.9343,18.9812 L19.9243,19.1109 C19.7484,21.2816 19.2868,23.8915 18.0817,23.9975 C18.0568,24 18.0318,24 18.0081,24 C17.1897,24 16.415,22.8273 15.7077,20.5156 C15.0365,18.3275 14.5163,15.3908 14.2431,12.2458 C13.9686,9.10074 13.9723,6.11789 14.2543,3.84614 C14.5612,1.37104 15.145,0.0785945 15.9908,0.00374259 C16.0158,0.00124753 16.042,0 16.0669,0 C16.6608,0 17.5552,0.672419 18.4709,3.80372 L17.8734,3.91849 C17.5677,2.87306 17.2346,2.02225 16.904,1.43591 C16.5984,0.895727 16.3002,0.597567 16.0669,0.597567 C16.0595,0.597567 16.052,0.597567 16.0432,0.598815 C15.6765,0.631251 15.1425,1.51949 14.8456,3.91974 C14.5687,6.15033 14.5649,9.08951 14.8356,12.1934 C15.1063,15.2985 15.6178,18.1915 16.2765,20.3397 C16.5709,21.3016 16.8941,22.095 17.2122,22.6327 C17.5041,23.1292 17.7873,23.4024 18.0081,23.4024 C18.0156,23.4024 18.0231,23.4024 18.0306,23.4012 C18.3811,23.3712 19.0423,22.4456 19.3205,19.1908 L19.9343,18.9812 Z" id="Path" fill="#EE6723"></path>
                </g>
            </g>
        </g>
    </g>
</svg>