<?xml version="1.0" encoding="UTF-8"?>
<svg width="24px" height="24px" viewBox="0 0 24 24" version="1.1" xmlns="http://www.w3.org/2000/svg" xmlns:xlink="http://www.w3.org/1999/xlink">
    <title>illustrator.5d858a3b</title>
    <g id="Page-1" stroke="none" stroke-width="1" fill="none" fill-rule="evenodd">
        <g id="Portfolio-Home" transform="translate(-1267.000000, -5588.000000)">
            <g id="Icons" transform="translate(960.000000, 5587.000000)">
                <g id="illustrator.5d858a3b" transform="translate(307.000000, 1.000000)">
                    <path d="M1,5.02588 C1,2.81674 2.79086,1.02588 5,1.02588 L19,1.02588 C21.2091,1.02588 23,2.81674 23,5.02588 L23,18.9746 C23,21.1837 21.2091,22.9746 19,22.9746 L5,22.9746 C2.79086,22.9746 1,21.1837 1,18.9746 L1,5.02588 Z" id="Path" fill="#261300"></path>
                    <path d="M4,24 C1.79086,24 0,22.2091 0,20 L0,4 C0,1.79086 1.79086,0 4,0 L20,0 C22.2091,0 24,1.79086 24,4 L24,20 C24,22.2091 22.2091,24 20,24 L4,24 Z M23,5.02565 C23,2.81651 21.2091,1.02565 19,1.02565 L5,1.02565 C2.79086,1.02565 1,2.8165 1,5.02564 L1,18.9744 C1,21.1835 2.79086,22.9744 5,22.9744 L19,22.9744 C21.2091,22.9744 23,21.1835 23,18.9744 L23,5.02565 Z" id="Shape" fill="#FF7C00"></path>
                    <path d="M15.61,6.22584 C15.61,5.56943 16.06,5.17969 16.63,5.17969 C17.24,5.17969 17.65,5.6002 17.65,6.22584 C17.65,6.90276 17.22,7.272 16.61,7.272 C16.03,7.272 15.61,6.90276 15.61,6.22584 Z M7.54002,16.6671 L8.33002,13.5901 L11.52,13.5901 L12.35,16.6773 C12.37,16.7491 12.42,16.7696 12.5,16.7696 L14.16,16.7696 C14.24,16.7696 14.26,16.7183 14.24,16.6363 L11.06,5.56962 C11.04,5.48756 11.01,5.46705 10.94,5.46705 L8.84002,5.46705 C8.79002,5.46705 8.76002,5.49782 8.76002,5.56962 C8.74002,6.07218 8.71002,6.23628 8.66002,6.4209 L5.82002,16.6158 C5.80002,16.7388 5.82002,16.7696 5.92002,16.7696 L7.39002,16.7696 C7.49002,16.7696 7.52002,16.7491 7.54002,16.6671 Z M10.7676,10.5758 C10.9023,11.1026 11.0241,11.5787 11.11,11.9282 L8.74002,11.9282 C9.16002,10.3384 9.69002,8.30768 9.90002,7.10768 L9.92002,7.10768 C10.0933,7.9393 10.4634,9.38666 10.7676,10.5758 Z M15.85,8.43088 C15.76,8.43088 15.73,8.4719 15.73,8.55395 L15.74,8.55395 L15.74,16.636 C15.74,16.7181 15.77,16.7693 15.87,16.7693 L17.42,16.7693 C17.52,16.7693 17.54,16.7283 17.54,16.6463 L17.54,8.55395 C17.54,8.46165 17.5,8.43088 17.42,8.43088 L15.85,8.43088 Z" id="Shape" fill="#FF7C00"></path>
                </g>
            </g>
        </g>
    </g>
</svg>