<?xml version="1.0" encoding="UTF-8"?>
<svg width="24px" height="24px" viewBox="0 0 24 24" version="1.1" xmlns="http://www.w3.org/2000/svg" xmlns:xlink="http://www.w3.org/1999/xlink">
    <title>invision.40b21672</title>
    <g id="Page-1" stroke="none" stroke-width="1" fill="none" fill-rule="evenodd">
        <g id="Portfolio-Home" transform="translate(-1318.000000, -5588.000000)" fill-rule="nonzero">
            <g id="Icons" transform="translate(960.000000, 5587.000000)">
                <g id="invision.40b21672" transform="translate(358.000000, 1.000000)">
                    <path d="M21.8236,0 L2.17644,0 C0.973151,0 0,0.973151 0,2.17644 L0,21.8236 C0,23.0268 0.973151,24 2.17644,24 L21.8236,24 C23.0268,24 24,23.0268 24,21.8236 L24,2.17644 C24,0.973151 23.0268,0 21.8236,0 Z" id="Path" fill="#FF3366"></path>
                    <path d="M8.0219,7.54842 C8.81752,7.54842 9.48821,6.92377 9.48821,6.10185 C9.48821,5.27993 8.81752,4.65527 8.0219,4.65527 C7.22629,4.65527 6.5556,5.27993 6.5556,6.10185 C6.5556,6.92377 7.22629,7.54842 8.0219,7.54842 Z" id="Path" fill="#FFFFFF"></path>
                    <path d="M4.98411,15.2877 C4.89863,15.6559 4.8526,16.0505 4.8526,16.3726 C4.8526,17.6417 5.54302,18.4899 7.00932,18.4899 C8.22575,18.4899 9.21206,17.7666 9.92219,16.6028 L9.48822,18.3452 L11.9014,18.3452 L13.2822,12.8088 C13.6241,11.4083 14.2948,10.6784 15.3074,10.6784 C16.103,10.6784 16.6027,11.1715 16.6027,11.9935 C16.6027,12.2302 16.583,12.4866 16.4975,12.7694 L15.7874,15.314 C15.6822,15.6822 15.6362,16.0505 15.6362,16.3924 C15.6362,17.6022 16.3463,18.4833 17.8323,18.4833 C19.1014,18.4833 20.1205,17.6614 20.6795,15.702 L19.7326,15.3337 C19.2592,16.6488 18.8515,16.8855 18.5227,16.8855 C18.2005,16.8855 18.0296,16.6685 18.0296,16.2411 C18.0296,16.0439 18.0756,15.8335 18.1348,15.5705 L18.8252,13.0915 C18.9962,12.5063 19.0619,11.9935 19.0619,11.52 C19.0619,9.66579 17.9375,8.69922 16.583,8.69922 C15.314,8.69922 14.0186,9.84333 13.3677,11.0532 L13.8411,8.88333 L10.1523,8.88333 L9.63288,10.7902 L11.3556,10.7902 L10.2904,15.0444 C9.45534,16.8987 7.92329,16.9315 7.7326,16.8855 C7.41699,16.8132 7.21315,16.6948 7.21315,16.2872 C7.21315,16.0505 7.25918,15.7085 7.36438,15.3009 L8.98192,8.88333 L4.88548,8.88333 L4.36603,10.7902 L6.08219,10.7902 L4.98411,15.2877 Z" id="Path" fill="#FFFFFF"></path>
                </g>
            </g>
        </g>
    </g>
</svg>