<?xml version="1.0" encoding="UTF-8"?>
<svg width="25px" height="24px" viewBox="0 0 25 24" version="1.1" xmlns="http://www.w3.org/2000/svg" xmlns:xlink="http://www.w3.org/1999/xlink">
    <title>slack.e0f6c6f2</title>
    <g id="Page-1" stroke="none" stroke-width="1" fill="none" fill-rule="evenodd">
        <g id="Portfolio-Home" transform="translate(-1368.000000, -5588.000000)">
            <g id="Icons" transform="translate(960.000000, 5587.000000)">
                <g id="slack.e0f6c6f2" transform="translate(408.000000, 1.000000)">
                    <path d="M5.08918,15.1718 C5.08918,16.568 3.9624,17.6948 2.56626,17.6948 C1.17011,17.6948 0.043335,16.5642 0.043335,15.1718 C0.043335,13.7795 1.17011,12.6489 2.56626,12.6489 L5.08918,12.6489 L5.08918,15.1718 Z M6.34874,15.1718 C6.34874,13.7757 7.47552,12.6489 8.87166,12.6489 C10.2678,12.6489 11.3946,13.7757 11.3946,15.1718 L11.3946,21.4773 C11.3946,22.8734 10.2678,24.0002 8.87166,24.0002 C7.47552,24.0002 6.34874,22.8734 6.34874,21.4773 L6.34874,15.1718 Z" id="Shape" fill="#E01E5A"></path>
                    <path d="M8.87165,5.04584 C7.47551,5.04584 6.34873,3.91906 6.34873,2.52292 C6.34873,1.12678 7.47551,0 8.87165,0 C10.2678,0 11.3946,1.12678 11.3946,2.52292 L11.3946,5.04584 L8.87165,5.04584 Z M8.87165,6.32438 C10.2678,6.32438 11.3946,7.45115 11.3946,8.8473 C11.3946,10.2434 10.2678,11.3702 8.87165,11.3702 L2.54727,11.3702 C1.15113,11.3702 0.024353,10.2396 0.024353,8.8473 C0.024353,7.45495 1.15113,6.32438 2.54727,6.32438 L8.87165,6.32438 Z" id="Shape" fill="#36C5F0"></path>
                    <path d="M18.9785,8.8473 C18.9785,7.45115 20.1053,6.32438 21.5014,6.32438 C22.8976,6.32438 24.0243,7.45115 24.0243,8.8473 C24.0243,10.2434 22.8976,11.3702 21.5014,11.3702 L18.9785,11.3702 L18.9785,8.8473 Z M17.7189,8.8473 C17.7189,10.2434 16.5922,11.3702 15.196,11.3702 C13.7999,11.3702 12.6731,10.2434 12.6731,8.8473 L12.6731,2.52292 C12.6731,1.12678 13.7999,0 15.196,0 C16.5922,0 17.7189,1.12678 17.7189,2.52292 L17.7189,8.8473 Z" id="Shape" fill="#2EB67D"></path>
                    <path d="M15.196,18.9543 C16.5922,18.9543 17.7189,20.0811 17.7189,21.4773 C17.7189,22.8734 16.5922,24.0002 15.196,24.0002 C13.7999,24.0002 12.6731,22.8734 12.6731,21.4773 L12.6731,18.9543 L15.196,18.9543 Z M15.196,17.6948 C13.7999,17.6948 12.6731,16.568 12.6731,15.1718 C12.6731,13.7757 13.7999,12.6489 15.196,12.6489 L21.5204,12.6489 C22.9165,12.6489 24.0433,13.7757 24.0433,15.1718 C24.0433,16.568 22.9165,17.6948 21.5204,17.6948 L15.196,17.6948 Z" id="Shape" fill="#ECB22E"></path>
                </g>
            </g>
        </g>
    </g>
</svg>