<?xml version="1.0" encoding="UTF-8"?>
<svg width="30px" height="30px" viewBox="0 0 30 30" version="1.1" xmlns="http://www.w3.org/2000/svg" xmlns:xlink="http://www.w3.org/1999/xlink">
    <!-- Generator: Sketch 64 (93537) - https://sketch.com -->
    <title>Shape</title>
    <desc>Created with Sketch.</desc>
    <g id="Page-1" stroke="none" stroke-width="1" fill="none" fill-rule="evenodd">
        <g id="GA-Landingpage-V2a" transform="translate(-350.000000, -6884.000000)" fill="#fff" fill-rule="nonzero">
            <g id="Group-11" transform="translate(200.000000, 6742.000000)">
                <path d="M176.428571,142 L153.571429,142 C151.6,142 150,143.6 150,145.571429 L150,168.428571 C150,170.4 151.6,172 153.571429,172 L176.428571,172 C178.4,172 180,170.4 180,168.428571 L180,145.571429 C180,143.6 178.4,142 176.428571,142 Z M159.285714,153.428571 L159.285714,167 L155,167 L155,153.428571 L159.285714,153.428571 Z M155,149.478571 C155,148.478571 155.857143,147.714286 157.142857,147.714286 C158.428571,147.714286 159.235714,148.478571 159.285714,149.478571 C159.285714,150.478571 158.485714,151.285714 157.142857,151.285714 C155.857143,151.285714 155,150.478571 155,149.478571 Z M175,167 L170.714286,167 C170.714286,167 170.714286,160.385714 170.714286,159.857143 C170.714286,158.428571 170,157 168.214286,156.971429 L168.157143,156.971429 C166.428571,156.971429 165.714286,158.442857 165.714286,159.857143 C165.714286,160.507143 165.714286,167 165.714286,167 L161.428571,167 L161.428571,153.428571 L165.714286,153.428571 L165.714286,155.257143 C165.714286,155.257143 167.092857,153.428571 169.864286,153.428571 C172.7,153.428571 175,155.378571 175,159.328571 L175,167 Z" id="Shape"></path>
            </g>
        </g>
    </g>
</svg>