<?xml version="1.0" encoding="UTF-8"?>
<svg width="56px" height="51px" viewBox="0 0 56 51" version="1.1" xmlns="http://www.w3.org/2000/svg" xmlns:xlink="http://www.w3.org/1999/xlink">
    <title>Logo</title>
    <g id="Page-1" stroke="none" stroke-width="1" fill="none" fill-rule="evenodd">
        <g id="Portfolio-Home" transform="translate(-321.000000, -29.000000)" fill="#FFFFFF">
            <g id="Logo" transform="translate(321.000000, 29.000000)">
                <path d="M25.5,0 C36.7758499,-2.07134002e-15 46.3423249,7.31870388 49.7082811,17.4649678 C49.0069131,16.2349131 49.0069131,16.2349131 47.874,15.102 C46.54,13.826 46.54,13.826 44.597,13.13 C42.654,12.434 42.654,12.434 40.392,12.434 C37.55,12.434 37.55,12.434 35.433,13.333 C33.316,14.232 33.316,14.232 31.402,16.262 C29.952,14.29 29.952,14.29 27.951,13.362 C25.95,12.434 25.95,12.434 23.398,12.434 C21.31,12.434 21.31,12.434 19.309,13.217 C17.4899091,13.9288182 17.4899091,13.9288182 16.0782562,15.2877438 L15.8,15.566 L15.8,12.782 L8.434,12.782 L8.434,43 L15.974,43 L15.974,24.73 C15.974,23.164 15.974,23.164 16.409,22.12 C16.844,21.076 16.844,21.076 17.569,20.438 C18.294,19.8 18.294,19.8 19.193,19.51 C20.092,19.22 20.092,19.22 21.02,19.22 C21.948,19.22 21.948,19.22 22.847,19.51 C23.746,19.8 23.746,19.8 24.442,20.438 C25.138,21.076 25.138,21.076 25.573,22.12 C25.9596667,23.048 25.9596667,23.048 26.0026296,24.3884444 L26.008,24.73 L26.008,43 L33.548,43 L33.548,24.556 C33.548,23.106 33.548,23.106 34.012,22.062 C34.476,21.018 34.476,21.018 35.201,20.409 C35.926,19.8 35.926,19.8 36.825,19.51 C37.724,19.22 37.724,19.22 38.594,19.22 C39.522,19.22 39.522,19.22 40.421,19.51 C41.32,19.8 41.32,19.8 42.016,20.438 C42.712,21.076 42.712,21.076 43.147,22.12 C43.5336667,23.048 43.5336667,23.048 43.5766296,24.3884444 L43.582,24.73 L43.5805355,28.3941018 C43.9798216,27.8802817 43.9798216,27.8802817 44.504,27.48 C45.384,26.808 45.384,26.808 46.552,26.472 C47.72,26.136 47.72,26.136 49,26.136 C50.984,26.136 50.984,26.136 52.568,26.552 C54.152,26.968 54.152,26.968 55.368,28.088 L55.368,28.088 L52.808,30.68 L52.61975,30.52625 C51.946,30.01 51.946,30.01 51.064,29.8 C50.056,29.56 50.056,29.56 48.936,29.56 C47.688,29.56 47.688,29.56 47.128,30.04 C46.568,30.52 46.568,30.52 46.568,31.16 C46.568,31.8 46.568,31.8 46.968,32.152 C47.368,32.504 47.368,32.504 48.296,32.6 L48.296,32.6 L50.92,32.856 L51.2471822,32.8945422 C53.4981333,33.1952 53.4981333,33.1952 54.648,34.36 C55.88,35.608 55.88,35.608 55.88,37.752 C55.88,39.128 55.88,39.128 55.336,40.152 C54.792,41.176 54.792,41.176 53.832,41.848 C52.872,42.52 52.872,42.52 51.576,42.856 C50.28,43.192 50.28,43.192 48.808,43.192 C47.816,43.192 47.816,43.192 46.888,43.112 C45.96,43.032 45.96,43.032 45.08,42.776 C44.2,42.52 44.2,42.52 43.352,42.056 L43.581,42.175 L43.582,43 L44.0470361,43.0003104 C39.3977447,47.9259063 32.8078689,51 25.5,51 C11.4167389,51 1.94882705e-14,39.5832611 1.77635684e-14,25.5 L1.77635684e-14,0 L25.5,0 Z M43.5803287,34.5582534 L43.581,38.915 L44.424,38.072 L44.63136,38.26848 C45.0512,38.6448 45.0512,38.6448 45.512,38.888 C46.088,39.192 46.088,39.192 46.68,39.368 C47.272,39.544 47.272,39.544 47.832,39.592 C48.392,39.64 48.392,39.64 48.872,39.64 C49.416,39.64 49.416,39.64 49.944,39.544 C50.472,39.448 50.472,39.448 50.888,39.24 C51.304,39.032 51.304,39.032 51.56,38.712 C51.816,38.392 51.816,38.392 51.816,37.912 C51.816,37.272 51.816,37.272 51.448,36.872 C51.08,36.472 51.08,36.472 50.056,36.376 L50.056,36.376 L47.432,36.12 L47.1124082,36.0836735 C45.0674286,35.8194286 45.0674286,35.8194286 43.864,34.824 C43.7134161,34.699443 43.7134161,34.699443 43.5803287,34.5582534 Z" id="Combined-Shape"></path>
            </g>
        </g>
    </g>
</svg>