<?xml version="1.0" encoding="UTF-8"?>
<svg width="32px" height="32px" viewBox="0 0 32 32" version="1.1" xmlns="http://www.w3.org/2000/svg" xmlns:xlink="http://www.w3.org/1999/xlink">
    <!-- Generator: Sketch 64 (93537) - https://sketch.com -->
    <title>Shape</title>
    <desc>Created with Sketch.</desc>
    <g id="Page-1" stroke="none" stroke-width="1" fill="none" fill-rule="evenodd">
        <g id="GA-Landingpage-V2a" transform="translate(-473.000000, -603.000000)" fill="#833DF2" fill-rule="nonzero">
            <g id="Hero-content" transform="translate(200.000000, 280.000000)">
                <g id="Play-button" transform="translate(257.000000, 309.000000)">
                    <path d="M32,14 C23.1776,14 16,21.1776 16,30 C16,38.8224 23.1776,46 32,46 C40.8224,46 48,38.8224 48,30 C48,21.1776 40.8224,14 32,14 Z M37.2,30.6928 L30,34.8496 C29.4672,35.1584 28.8,34.7728 28.8,34.1568 L28.8,25.8432 C28.8,25.2272 29.4672,24.8432 30,25.1504 L37.2,29.3072 C37.7328,29.616 37.7328,30.3856 37.2,30.6928 Z" id="Shape"></path>
                </g>
            </g>
        </g>
    </g>
</svg>