<?xml version="1.0" encoding="UTF-8"?>
<svg width="30px" height="30px" viewBox="0 0 30 30" version="1.1" xmlns="http://www.w3.org/2000/svg" xmlns:xlink="http://www.w3.org/1999/xlink">
    <!-- Generator: Sketch 64 (93537) - https://sketch.com -->
    <title>Shape</title>
    <desc>Created with Sketch.</desc>
    <g id="Page-1" stroke="none" stroke-width="1" fill="none" fill-rule="evenodd">
        <g id="GA-Landingpage-V2a" transform="translate(-250.000000, -6884.000000)" fill="#fff" fill-rule="nonzero">
            <g id="Group-11" transform="translate(200.000000, 6742.000000)">
                <path d="M73.1818182,142 L56.8181818,142 C53.0586364,142 50,145.059318 50,148.818864 L50,165.180455 C50,168.940682 53.0586364,172 56.8181818,172 L73.1818182,172 C76.9413636,172 80,168.940682 80,165.181136 L80,148.818182 C80,145.058636 76.9413636,142 73.1818182,142 Z M72.6622727,153.918182 C72.6690909,154.079773 72.6731818,154.243409 72.6731818,154.408409 C72.6731818,159.411591 68.8734091,165.181818 61.9256818,165.181818 C59.7929545,165.181818 57.8068182,164.555227 56.1363636,163.48 C56.4315909,163.515455 56.7309091,163.5325 57.0370455,163.5325 C58.8070455,163.5325 60.4359091,162.928409 61.7272727,161.9125 C60.0745455,161.8825 58.6809091,160.785455 58.1988636,159.282727 C58.43,159.327045 58.6665909,159.350909 58.9106818,159.350909 C59.255,159.350909 59.5890909,159.305227 59.9047727,159.217273 C58.1784091,158.868182 56.8768182,157.339545 56.8768182,155.504091 C56.8768182,155.487727 56.8768182,155.472045 56.8768182,155.456364 C57.3861364,155.74 57.9677273,155.911136 58.5875,155.930909 C57.5729545,155.250455 56.9075,154.092727 56.9075,152.778864 C56.9075,152.084773 57.0929545,151.435 57.4181818,150.874545 C59.2815909,153.165455 62.0647727,154.672955 65.2031818,154.831136 C65.1384091,154.553636 65.1043182,154.265227 65.1043182,153.968636 C65.1043182,151.8775 66.7952273,150.181818 68.8815909,150.181818 C69.9677273,150.181818 70.9488636,150.641364 71.6375,151.377727 C72.4972727,151.207955 73.3065909,150.892955 74.0361364,150.459318 C73.7545455,151.342273 73.1552273,152.084773 72.3745455,152.553864 C73.1395455,152.461136 73.8663636,152.258636 74.5447727,151.957273 C74.0395455,152.716818 73.3993182,153.384318 72.6622727,153.918182 Z" id="Shape"></path>
            </g>
        </g>
    </g>
</svg>