<svg id="shape-construct" viewBox="0 0 29 30"><title>Combined Shape</title><path d="M297.994777,1806.50261 L289.907052,1810.54647 C288.82099,1809.00614 287.027993,1808 285,1808 C281.686292,1808 279,1810.68629 279,1814 C279,1817.31371 281.686292,1820 285,1820 C287.027993,1820 288.82099,1818.99386 289.907052,1817.45353 L297.994777,1821.49739 C295.401579,1825.98234 290.553196,1829 285,1829 C276.715729,1829 270,1822.28427 270,1814 C270,1805.71573 276.715729,1799 285,1799 C290.553196,1799 295.401579,1802.01766 297.994777,1806.50261 Z M292.788854,1813.10557 L297.552786,1810.72361 C298.046765,1810.47662 298.647438,1810.67684 298.894427,1811.17082 C298.963855,1811.30968 299,1811.46279 299,1811.61803 L299,1816.38197 C299,1816.93425 298.552285,1817.38197 298,1817.38197 C297.844755,1817.38197 297.691642,1817.34582 297.552786,1817.27639 L292.788854,1814.89443 C292.294876,1814.64744 292.094652,1814.04676 292.341641,1813.55279 C292.438404,1813.35926 292.595327,1813.20234 292.788854,1813.10557 Z" transform="translate(-270 -1799)" fill-rule="nonzero"></path></svg>