<?xml version="1.0" encoding="UTF-8"?>
<svg width="30px" height="30px" viewBox="0 0 30 30" version="1.1" xmlns="http://www.w3.org/2000/svg" xmlns:xlink="http://www.w3.org/1999/xlink">
    <!-- Generator: Sketch 64 (93537) - https://sketch.com -->
    <title>Path</title>
    <desc>Created with Sketch.</desc>
    <g id="Page-1" stroke="none" stroke-width="1" fill="none" fill-rule="evenodd">
        <g id="GA-Landingpage-V2a" transform="translate(-200.000000, -6884.000000)" fill="#14F0AF" fill-rule="nonzero">
            <g id="Group-11" transform="translate(200.000000, 6742.000000)">
                <path d="M27.2727273,142 L2.72727273,142 C1.22045455,142 0,143.220455 0,144.727273 L0,169.272727 C0,170.779545 1.22045455,172 2.72727273,172 L16.3636364,172 L16.3636364,159.727273 L12.2727273,159.727273 L12.2727273,155.636364 L16.3636364,155.636364 L16.3636364,153.439545 C16.3636364,149.280455 18.39,147.454545 21.8468182,147.454545 C23.5022727,147.454545 24.3777273,147.577273 24.7922727,147.633182 L24.7922727,151.545455 L22.4345455,151.545455 C20.9672727,151.545455 20.4545455,152.32 20.4545455,153.888182 L20.4545455,155.636364 L24.7554545,155.636364 L24.1718182,159.727273 L20.4545455,159.727273 L20.4545455,172 L27.2727273,172 C28.7795455,172 30,170.779545 30,169.272727 L30,144.727273 C30,143.220455 28.7781818,142 27.2727273,142 Z" id="Path"></path>
            </g>
        </g>
    </g>
</svg>