<?xml version="1.0" encoding="UTF-8"?>
<svg width="119px" height="80px" viewBox="0 0 119 80" version="1.1" xmlns="http://www.w3.org/2000/svg" xmlns:xlink="http://www.w3.org/1999/xlink">
    <!-- Generator: Sketch 64 (93537) - https://sketch.com -->
    <title>Group 19</title>
    <desc>Created with Sketch.</desc>
    <g id="Page-1" stroke="none" stroke-width="1" fill="none" fill-rule="evenodd">
        <g id="GA-Landingpage-V2b" transform="translate(-1020.000000, -5216.000000)">
            <g id="Feature-#1" transform="translate(-662.000000, 5114.000000)">
                <g id="Events-Copy" transform="translate(1682.000000, 102.000000)">
                    <g id="Group-5">
                        <g id="1">
                            <g id="Group-19">
                                <path d="M55.1456311,71.4563107 C42.436287,71.4563107 33.5669059,70.2653722 28.7716336,67.641587 C27.8163267,67.1670718 27.0951609,66.9344672 26.6175086,66.9344672 C12.2316918,66.4506484 5.03878339,61.4542874 2.15412741,58.3559871 C0.721163394,56.9231403 0,55.2576867 0,53.1177179 C0,42.6318782 0.477654673,23.3442551 2.39763613,15.9567158 C3.35294548,12.1512957 6.94939968,9.52750809 11.0328737,9.52750809 C15.1069802,9.52750809 21.3352165,5.71278436 25.4186905,2.13996883 C27.3293068,0.716423353 29.492797,0 31.6469244,0 L78.8784837,0 C81.2761198,0 83.6737559,0.949030317 85.1160827,2.38187702 C88.2348823,5.2382692 94.9501384,9.52750809 99.2583908,9.52750809 C103.341865,9.52750809 106.938319,12.1512957 107.893626,15.9567158 C109.570099,22.3859235 110.291262,39.0590627 110.291262,52.8758097 C110.291262,55.0250821 109.570099,56.6905334 108.137137,58.1140789 C105.018335,61.2123792 98.0595727,66.2180415 83.6737559,66.6925566 C82.7184466,66.6925566 81.9972832,66.9344672 81.7631397,67.1670718 C77.4455197,70.023464 68.5761409,71.4563107 55.1456311,71.4563107 Z M26.6175086,62.1707132 C27.8163267,62.1707132 29.2492883,62.6452259 30.925761,63.3616517 C33.3233971,64.5525902 39.3174875,66.6925566 55.1456311,66.6925566 C71.929084,66.6925566 77.4455197,64.3106796 78.8784837,63.3616517 C80.0773017,62.4033177 81.7631397,61.9288026 83.6737559,61.9288026 C96.6266087,61.4542874 102.854845,56.6905334 104.774826,54.7831715 C105.252481,54.3086564 105.49599,53.592233 105.49599,52.8758097 C105.49599,39.775486 104.774826,23.1023469 103.098354,17.3895625 C102.620699,15.7241112 100.944229,14.5331727 99.2583908,14.5331727 C92.7866458,14.5331727 85.1160827,9.05299293 81.7631397,5.95469256 C80.7984651,5.00566462 79.5996471,5.00566462 78.8784837,5.00566462 L31.6469244,5.00566462 C30.6916151,5.00566462 29.492797,5.4801774 28.5281249,6.19660313 C27.0951609,7.38754164 18.4599257,14.2912621 11.0328737,14.2912621 C9.11288986,14.2912621 7.67056307,15.4822006 7.1929084,17.1476543 C5.51643566,23.1023469 4.79527227,39.775486 4.79527227,53.1177179 C4.79527227,53.8341436 5.03878339,54.5412633 5.51643566,55.0250821 C7.43641952,56.9231403 13.6646534,61.6868944 26.6175086,62.1707132 Z" id="Shape" fill-opacity="0.5" fill="#14F0AF" fill-rule="nonzero"></path>
                                <rect id="Rectangle" fill="#151829" x="12.4271845" y="19.4174757" width="104.854369" height="58.2524272"></rect>
                                <path d="M63.6893204,80 C50.9799763,80 42.1105952,78.8090615 37.3153229,76.1852763 C36.360016,75.7107611 35.6388502,75.4781565 35.1611979,75.4781565 C20.7753811,74.9943378 13.5824727,69.9979768 10.6978167,66.8996764 C9.26485271,65.4668297 8.54368932,63.801376 8.54368932,61.6614072 C8.54368932,51.1755675 9.02134399,31.8879444 10.9413255,24.5004051 C11.8966348,20.694985 15.493089,18.0711974 19.576563,18.0711974 C23.6506695,18.0711974 29.8789058,14.2564737 33.9623798,10.6836581 C35.8729961,9.26011267 38.0364863,8.54368932 40.1906137,8.54368932 L87.422173,8.54368932 C89.8198091,8.54368932 92.2174453,9.49271964 93.6597721,10.9255663 C96.7785716,13.7819585 103.493828,18.0711974 107.80208,18.0711974 C111.885554,18.0711974 115.482008,20.694985 116.437315,24.5004051 C118.113788,30.9296128 118.834951,47.602752 118.834951,61.419499 C118.834951,63.5687714 118.113788,65.2342227 116.680826,66.6577682 C113.562025,69.7560686 106.603262,74.7617308 92.2174453,75.236246 C91.2621359,75.236246 90.5409725,75.4781565 90.306829,75.7107611 C85.989209,78.5671533 77.1198302,80 63.6893204,80 Z M35.1611979,70.7144025 C36.360016,70.7144025 37.7929776,71.1889153 39.4694503,71.905341 C41.8670865,73.0962795 47.8611768,75.236246 63.6893204,75.236246 C80.4727733,75.236246 85.989209,72.8543689 87.422173,71.905341 C88.6209911,70.9470071 90.306829,70.4724919 92.2174453,70.4724919 C105.170298,69.9979768 111.398534,65.2342227 113.318516,63.3268608 C113.79617,62.8523457 114.039679,62.1359223 114.039679,61.419499 C114.039679,48.3191754 113.318516,31.6460362 111.642043,25.9332518 C111.164388,24.2678005 109.487918,23.076862 107.80208,23.076862 C101.330335,23.076862 93.6597721,17.5966823 90.306829,14.4983819 C89.3421545,13.5493539 88.1433364,13.5493539 87.422173,13.5493539 L40.1906137,13.5493539 C39.2353044,13.5493539 38.0364863,14.0238667 37.0718142,14.7402925 C35.6388502,15.931231 27.003615,22.8349515 19.576563,22.8349515 C17.6565792,22.8349515 16.2142524,24.02589 15.7365977,25.6913436 C14.060125,31.6460362 13.3389616,48.3191754 13.3389616,61.6614072 C13.3389616,62.3778329 13.5824727,63.0849526 14.060125,63.5687714 C15.9801088,65.4668297 22.2083427,70.2305837 35.1611979,70.7144025 Z M22.9295061,27.5987055 L27.7247784,27.5987055 L27.7247784,41.8899676 L22.9295061,41.8899676 L22.9295061,27.5987055 Z M18.1342339,37.1262136 L18.1342339,32.3624595 L32.5200507,32.3624595 L32.5200507,37.1262136 L18.1342339,37.1262136 Z M105.647953,27.5987055 C107.567934,27.5987055 109.244407,29.2641592 109.244407,31.171521 C109.244407,33.0788829 107.567934,34.7443366 105.647953,34.7443366 C103.727971,34.7443366 102.051499,33.0788829 102.051499,31.171521 C102.051499,29.2641592 103.727971,27.5987055 105.647953,27.5987055 Z M98.4550443,34.7443366 C100.375026,34.7443366 102.051499,36.4097902 102.051499,38.3171521 C102.051499,40.224514 100.375026,41.8899676 98.4550443,41.8899676 C96.5350629,41.8899676 94.8585901,40.224514 94.8585901,38.3171521 C94.8585901,36.4097902 96.5350629,34.7443366 98.4550443,34.7443366 Z M32.2765419,53.5574446 C32.7635618,52.366506 32.2765419,50.9429606 31.3212326,50.4684478 L24.1283242,46.8956323 C22.9295061,46.4118135 21.4871793,46.8956323 21.0095247,47.8446602 C20.53187,49.0355987 21.0095247,50.4684478 21.9741992,50.9429606 L29.1671076,54.5157761 C29.4012511,54.7483831 29.8789058,54.7483831 30.1224145,54.7483831 C31.0777239,54.9902913 31.7988873,54.5157761 32.2765419,53.5574446 Z M32.2765419,63.0849526 C32.7635618,61.8940141 32.2765419,60.4704687 31.3212326,59.9959559 L24.1283242,56.4231403 C22.9295061,55.9393216 21.4871793,56.4231403 21.0095247,57.3721683 C20.53187,58.5631068 21.0095247,59.9959559 21.9741992,60.4704687 L29.1671076,64.0432842 C29.4012511,64.2758912 29.8789058,64.2758912 30.1224145,64.2758912 C31.0777239,64.5177994 31.7988873,64.0432842 32.2765419,63.0849526 Z M82.8704095,63.3268608 L44.5082313,63.3268608 C41.6329405,63.3268608 39.7129591,61.419499 39.7129591,58.5631068 L39.7129591,27.5987055 C39.7129591,24.7423133 41.6329405,22.8349515 44.5082313,22.8349515 L82.8704095,22.8349515 C85.7457003,22.8349515 87.6656817,24.7423133 87.6656817,27.5987055 L87.6656817,58.5631068 C87.6656817,61.419499 85.7457003,63.3268608 82.8704095,63.3268608 Z M44.5082313,27.5987055 L44.5082313,58.5631068 L82.8704095,58.5631068 L82.8704095,27.5987055 L44.5082313,27.5987055 Z M96.5350629,53.5574446 L106.125607,48.7936905 C106.603262,48.5610835 106.846771,47.8446602 106.603262,47.1282368 C106.369116,46.6537217 105.647953,46.4118135 104.926789,46.6537217 L95.3362448,51.4174757 C94.8585901,51.6593863 94.6150814,52.366506 94.8585901,53.0829294 C95.1021012,53.5574446 95.5797535,53.7993528 95.8138995,53.7993528 C96.3009193,53.7993528 96.5350629,53.7993528 96.5350629,53.5574446 Z M96.5350629,58.3211986 L106.125607,53.5574446 C106.603262,53.3248376 106.846771,52.6084142 106.603262,51.8919909 C106.369116,51.4174757 105.647953,51.1755675 104.926789,51.4174757 L95.3362448,56.1812298 C94.8585901,56.4231403 94.6150814,57.1302601 94.8585901,57.8466834 C95.1021012,58.3211986 95.5797535,58.5631068 95.8138995,58.5631068 C96.3009193,58.5631068 96.5350629,58.5631068 96.5350629,58.3211986 Z M96.5350629,63.0849526 L106.125607,58.3211986 C106.603262,58.0885916 106.846771,57.3721683 106.603262,56.6557449 C106.369116,56.1812298 105.647953,55.9393216 104.926789,56.1812298 L95.3362448,60.9449838 C94.8585901,61.1868944 94.6150814,61.8940141 94.8585901,62.6104375 C95.1021012,63.0849526 95.5797535,63.3268608 95.8138995,63.3268608 C96.3009193,63.3268608 96.5350629,63.3268608 96.5350629,63.0849526 Z" id="Shape" fill="#FFFFFF" fill-rule="nonzero"></path>
                            </g>
                        </g>
                    </g>
                </g>
            </g>
        </g>
    </g>
</svg>