<?xml version="1.0" encoding="UTF-8"?>
<svg width="30px" height="30px" viewBox="0 0 30 30" version="1.1" xmlns="http://www.w3.org/2000/svg" xmlns:xlink="http://www.w3.org/1999/xlink">
    <!-- Generator: Sketch 64 (93537) - https://sketch.com -->
    <title>Shape</title>
    <desc>Created with Sketch.</desc>
    <g id="Page-1" stroke="none" stroke-width="1" fill="none" fill-rule="evenodd">
        <g id="GA-Landingpage-V2a" transform="translate(-300.000000, -6884.000000)" fill="#14F0AF" fill-rule="nonzero">
            <g id="Group-11" transform="translate(200.000000, 6742.000000)">
                <path d="M108.863636,142 C103.975,142 100,145.975 100,150.863636 L100,163.136364 C100,168.025 103.975,172 108.863636,172 L121.136364,172 C126.025,172 130,168.025 130,163.136364 L130,150.863636 C130,145.975 126.025,142 121.136364,142 L108.863636,142 Z M123.181818,147.454545 C123.931818,147.454545 124.545455,148.068182 124.545455,148.818182 C124.545455,149.568182 123.931818,150.181818 123.181818,150.181818 C122.431818,150.181818 121.818182,149.568182 121.818182,148.818182 C121.818182,148.068182 122.431818,147.454545 123.181818,147.454545 Z M115,149.5 C119.138636,149.5 122.5,152.861364 122.5,157 C122.5,161.138636 119.138636,164.5 115,164.5 C110.861364,164.5 107.5,161.138636 107.5,157 C107.5,152.861364 110.861364,149.5 115,149.5 Z M115,150.863636 C111.618182,150.863636 108.863636,153.618182 108.863636,157 C108.863636,160.381818 111.618182,163.136364 115,163.136364 C118.381818,163.136364 121.136364,160.381818 121.136364,157 C121.136364,153.618182 118.381818,150.863636 115,150.863636 Z" id="Shape"></path>
            </g>
        </g>
    </g>
</svg>