<svg xmlns="http://www.w3.org/2000/svg" xmlns:xlink="http://www.w3.org/1999/xlink" width="47px" height="49px" viewBox="0 0 47 49" version="1.1">
    <!-- Generator: Sketch 54.1 (76490) - https://sketchapp.com -->
    <title>Shape</title>
    <desc>Created with Sketch.</desc>
    <g id="Symbols" stroke="none" stroke-width="1" fill="none" fill-rule="evenodd">
        <g id="header" transform="translate(-89.000000, -9.000000)" fill="#1E1E1F">
            <g id="Group-4" transform="translate(24.000000, 9.000000)">
                <g id="Shape" transform="translate(65.000000, 0.000000)">
                    <path d="M5.06475496,27.6145813 C5.54051459,27.6127094 6.02135023,27.6108374 6.50541605,27.6108374 C7.50169641,27.6108374 8.51043605,27.6187931 9.5108695,27.6520197 C12.6741404,27.7568473 15.322428,29.9760099 16.099979,33.1741872 C16.8738382,36.3550493 15.571152,39.5780296 12.8587222,41.1944335 C11.7881477,41.8318227 10.601748,42.1767241 9.33182514,42.2183744 C8.56950223,42.2436453 7.78041496,42.2492611 6.97932987,42.2352217 C6.98994332,43.7285468 6.98256005,46.5055419 6.98256005,46.5055419 C6.97840696,48.1523645 6.15332623,48.9905172 4.52992914,48.995665 C4.52992914,48.995665 3.40859459,48.9975369 3.22539714,48.995197 C1.76812369,48.9764778 0.930583685,48.1200739 0.926430594,46.645 C0.921354594,44.5947783 0.922738958,32.2078079 0.924584776,30.1178079 C0.925046231,29.520197 0.994725867,28.7653448 1.53324332,28.2248276 C2.06668478,27.6880542 2.80870369,27.6178571 3.39751969,27.6178571 C3.4755055,27.6183251 3.55626005,27.6178571 3.63563023,27.6178571 C4.11185132,27.6178571 4.58807241,27.6159852 5.06475496,27.6145813 Z M8.40522441,33.1044581 C8.09743423,33.1156897 7.80118041,33.1208374 7.51277132,33.1208374 C7.33418841,33.1208374 7.15883569,33.1189655 6.98532878,33.1147537 C6.99271205,33.512069 6.99271205,36.4102709 6.98532878,36.8206897 C7.0946935,36.8188177 8.1911095,36.8249015 8.37153823,36.8249015 C9.64699859,36.8225616 10.1716724,36.2998276 10.1822859,35.0203695 C10.1850546,34.62867 10.1273728,33.9093842 9.70329605,33.4905419 C9.42273169,33.2130296 8.98573423,33.083867 8.40522441,33.1044581 Z"/>
                    <path d="M42.7849918,0.469384236 C42.7849918,0.469384236 43.0835529,0.467980296 43.3876514,0.467980296 C43.600382,0.467980296 43.8158812,0.468916256 43.9335522,0.471256158 C44.6829543,0.486699507 45.2237791,0.702438424 45.5874052,1.12923645 C45.9501085,1.5555665 46.0802387,2.12603448 45.9856405,2.87246305 C45.7669111,4.60773399 45.5329536,6.36874384 45.305918,8.07172414 L45.1697889,9.09332512 C44.9649031,10.6376601 44.7590943,12.1815271 44.5528242,13.7258621 C44.1947354,16.4139409 43.8366467,19.1020197 43.4822496,21.7910345 C43.2469078,23.5759113 42.5095034,24.2409113 40.7610522,24.2441872 C40.7610522,24.2441872 39.915206,24.2455911 39.7813842,24.2437192 C39.2530187,24.2376355 38.4930031,24.1618227 37.9955551,23.5731034 C37.4985685,22.9843842 37.5414838,22.2098768 37.6167009,21.6791872 C37.7140678,20.995 38.0536983,18.4571429 38.1358372,17.8702956 C36.5968863,17.7224138 35.3241947,17.2006158 34.3454496,16.316601 C33.2513409,15.3268227 32.5508529,13.9050985 32.2647511,12.089803 C31.8886656,9.70076355 31.0400507,3.5744335 30.945914,2.90288177 C30.8263972,2.05022167 31.1060387,1.50174877 31.362146,1.19241379 C31.6191762,0.880738916 32.1050878,0.502610837 32.9606245,0.472192118 C33.1484365,0.465172414 33.7497118,0.469384236 33.7534034,0.469384236 C34.7621431,0.469384236 35.5189285,0.509162562 36.0800572,1.00381773 C36.6407245,1.49706897 36.7842369,2.2514532 36.9263649,3.26369458 C37.2922983,5.87174877 38.1902889,11.7898276 38.3079598,12.0509606 C38.4339369,12.3303448 38.6203645,12.4969458 38.8649354,12.5488916 C39.0019874,11.423867 39.7813842,5.058867 40.026878,2.99928571 C40.2377627,1.22891626 41.0628434,0.472192118 42.7849918,0.469384236 Z" id="Path"/>
                    <path d="M38.4429074,27.9173645 C39.2555289,27.7133251 40.1009136,27.6108374 40.9887521,27.6108374 C42.0699401,27.6108374 43.213886,27.7624631 44.4399707,28.0652463 C45.6042205,28.3530542 46.223031,29.3648276 45.9798445,30.5825123 C45.9050889,30.9578325 45.8008001,31.35 45.6623638,31.7824138 C45.304275,32.9022906 44.5068816,33.4184729 43.3564754,33.2752709 C43.0929849,33.2420443 41.6680132,33.0043103 41.2319387,33.0066502 C39.7640518,33.0188177 39.273987,33.4952217 39.2135365,34.9679557 C39.1609307,36.2516256 39.163238,37.5086207 39.2209198,38.7038424 C39.2781401,39.8892365 39.8046598,40.4115025 40.9813689,40.4512808 C41.664783,40.4751478 42.3371223,40.3633005 43.1446678,40.2144828 C44.5465667,39.9566256 45.3716474,40.4854433 45.7421954,41.8804926 C45.7652681,41.9684729 45.9604634,42.6652956 46.0121463,42.9507635 C46.217955,44.0818719 45.64529,45.0599507 44.619015,45.3304433 C43.6162743,45.5943842 42.3435827,45.8634729 40.9453754,45.8634729 C39.7294427,45.8634729 38.4189118,45.6608374 37.106535,45.0744581 C34.9201634,44.0977833 33.6437801,42.1991872 33.314763,39.4329557 C33.2077056,38.5367734 33.0881889,34.0717734 33.6516249,32.395468 C34.4397892,30.0485468 36.0105805,28.5276108 38.4429074,27.9173645 Z" id="Path"/>
                    <path d="M20.1665457,28.3418227 C21.5019951,27.9454433 22.9052784,27.6108374 24.3611675,27.6108374 C25.2259333,27.6108374 26.1100802,27.7292365 27.0085322,28.0226601 C29.5520697,28.8537931 31.2769868,31.11367 31.4038868,33.7806897 C31.4380344,34.5055911 31.4366501,38.642069 31.4361886,39.1671429 C31.432497,42.0358621 29.9802995,44.2082266 27.3477013,45.2827094 C26.4160246,45.6636453 25.4243588,45.8470936 24.4446908,45.8470936 C22.4692039,45.8470936 20.5375551,45.101601 19.2159493,43.7191872 C17.6899191,42.1219704 17.1897024,40.1101232 17.7702122,37.9007882 C18.2625842,36.0246552 19.6109544,34.8734236 21.7788679,34.2641133 C22.7603817,33.9880049 23.7515861,33.9500985 24.6038926,33.9360591 C24.6038926,33.9360591 25.1964002,33.9262315 25.4446628,33.9271675 C25.4492773,33.9360591 25.6315519,32.3524138 24.1950439,32.3524138 C23.3473519,32.3524138 22.5255013,32.5283744 21.5389115,32.7352217 C20.3354381,32.9865271 19.4139133,33.1114778 19.0082948,31.9363793 C18.9021602,31.6275123 18.8098693,31.2915025 18.7351137,30.9391133 C18.488697,29.7733744 19.1042773,28.6567734 20.1665457,28.3418227 Z M22.8180635,39.2041133 C22.8180635,39.9556897 23.4184159,40.565 24.1599733,40.565 C24.2965639,40.565 24.4280784,40.5439409 24.5517482,40.5055665 C24.5665148,40.5027586 24.5808199,40.5022906 24.595125,40.4990148 C24.9762864,40.4171182 25.2896141,40.1091872 25.3966715,39.734335 C25.4645053,39.5714778 25.5028061,39.3922414 25.5028061,39.2041133 L25.5028061,37.8427586 L24.1599733,37.8427586 C23.4184159,37.8427586 22.8180635,38.452069 22.8180635,39.2041133 Z"/>
                    <path d="M17.977344,1.1994335 C19.1669738,0.407142857 20.5550291,6.92779167e-14 22.0390669,6.92779167e-14 C22.3717756,6.92779167e-14 22.7095604,0.020591133 23.0505753,0.061773399 C26.7865113,0.513374384 29.1542345,2.91692118 29.5469324,6.65374384 C29.7199778,8.3005665 29.8579527,10.4691872 29.3826545,12.6368719 C28.6793978,15.8425369 26.1229396,18.0312808 22.8696851,18.2128571 C22.6514171,18.2250246 22.4377636,18.2311084 22.2273404,18.2311084 C19.8305455,18.2311084 17.9662691,17.4350739 16.5449891,15.8074384 C15.5948542,14.7193842 15.0152673,13.348202 14.8219178,11.7308621 C14.7310113,10.9661823 14.7231665,6.58073892 15.0240349,5.42857143 C15.4910269,3.63714286 16.5117644,2.17423645 17.977344,1.1994335 Z M20.7848335,11.4617734 C20.7848335,12.2723153 21.4382531,12.9349754 22.2370309,12.9349754 C23.0367316,12.9349754 23.6896898,12.2723153 23.6896898,11.4617734 L23.6896898,6.76933498 C23.6896898,5.9587931 23.0367316,5.29566502 22.2370309,5.29566502 C21.4382531,5.29566502 20.7848335,5.9587931 20.7848335,6.76933498 L20.7848335,11.4617734 Z"/>
                    <path d="M0.30857275,18.7788904 C-0.360796013,17.5299286 0.0949384004,15.9671407 1.32648405,15.288306 C2.5580297,14.6094712 4.09902531,15.0716504 4.76839407,16.3206122 C5.44719808,17.5871791 6.52733538,18.4112954 8.16713571,18.8568922 C9.92313809,19.3340656 11.3875513,19.2635218 12.6504858,18.6939559 C13.931254,18.1163472 15.4312367,18.7010534 16.000791,19.9999339 C16.5703452,21.2988143 15.9937924,22.8200093 14.7130242,23.397618 C12.333579,24.4707148 9.68365751,24.5983669 6.85337024,23.829269 C3.90688094,23.0285945 1.67250519,21.3238247 0.30857275,18.7788904 Z" id="Path"/>
                    <path d="M6.92181818,6.08374384 L5.02362712,6.08374384 C4.28486285,6.08374384 3.86362073,5.97514245 3.48762073,5.77121174 C3.11162073,5.56728103 2.81653373,5.268021 2.61544673,4.88670372 C2.41435973,4.50538644 2.30727273,4.07818724 2.30727273,3.32897559 L2.30727273,2.75476825 C2.30727273,2.0055566 2.41435973,1.5783574 2.61544673,1.19704013 C2.81653373,0.815722847 3.11162073,0.516462816 3.48762073,0.312532104 C3.86362073,0.108601392 4.28486285,1.77635684e-13 5.02362712,1.77635684e-13 L8.82000924,1.77635684e-13 C8.96845351,1.77635684e-13 9.10407774,0.004384807 9.22909091,0.0130467469 C9.35410407,0.004384807 9.48972831,1.77635684e-13 9.63817257,1.77635684e-13 L10.2043729,1.77635684e-13 C10.9431371,1.77635684e-13 11.3643793,0.108601392 11.7403793,0.312532104 C12.1163793,0.516462816 12.4114663,0.815722847 12.6125533,1.19704013 C12.8136403,1.5783574 12.9207273,2.0055566 12.9207273,2.75476825 L12.9207273,14.0925224 C12.9207273,14.841734 12.8136403,15.2689332 12.6125533,15.6502505 C12.4114663,16.0315678 12.1163793,16.3308278 11.7403793,16.5347585 C11.3643793,16.7386892 10.9431371,16.8472906 10.2043729,16.8472906 L9.63817257,16.8472906 C8.89940831,16.8472906 8.47816618,16.7386892 8.10216618,16.5347585 C7.72616618,16.3308278 7.43107918,16.0315678 7.22999218,15.6502505 C7.02890518,15.2689332 6.92181818,14.841734 6.92181818,14.0925224 L6.92181818,6.08374384 Z" id="Path"/>
                </g>
            </g>
        </g>
    </g>
</svg>