<svg xmlns="http://www.w3.org/2000/svg" xmlns:xlink="http://www.w3.org/1999/xlink" version="1.1" id="Calque_1" x="0px" y="0px" viewBox="0 0 156 55" style="enable-background:new 0 0 156 55;" xml:space="preserve">
<style type="text/css">
	.st0{fill:#FFFFFF;}
</style>
<path class="st0" d="M140.9,38.2v4.4c0,0.6-0.5,0.8-0.9,1c-6.6,4.2-15,4.3-21.6,0.1c-0.6-0.3-1-0.9-0.9-1.6c0-1.3,0-2.5,0-3.9  C125.3,43.1,133,43.1,140.9,38.2z"/>
<path class="st0" d="M25.3,19.7l6,9.4h-7.7l-3.8-7v7h-6.8V11.2h6.8v6.2l3.4-6.2h7.7L25.3,19.7z"/>
<path class="st0" d="M45.2,23.5h-8c0.1,1.1,0.8,1.7,2.1,1.7c0.6,0,1.2-0.1,1.9-0.2c0.5-0.1,1-0.2,1.5-0.4l0.5-0.2l1.3,3.8  c-0.2,0.1-0.5,0.2-0.7,0.3c-0.7,0.2-1.3,0.4-2,0.6c-1.1,0.2-2.1,0.4-3.2,0.4c-2.2,0.2-4.4-0.6-6-2c-1.4-1.4-2.1-3.3-2-5.2  c-0.1-1.9,0.7-3.8,2-5.2c1.5-1.4,3.6-2.2,5.6-2c2-0.1,3.9,0.6,5.3,1.9c1.3,1.5,2,3.4,1.8,5.4C45.2,22.5,45.2,22.9,45.2,23.5z   M37.2,21h1.7c0-1.1-0.3-1.7-0.9-1.7C37.5,19.3,37.2,19.8,37.2,21L37.2,21z"/>
<path class="st0" d="M56.7,19.7h-2.5v3.8c0,0.8,0.1,1.3,0.4,1.4c0.7,0.1,1.4,0.1,2.1-0.1V29c-1.4,0.3-2.8,0.4-4.2,0.4  c-1.4,0.1-2.8-0.3-3.9-1.1c-0.9-0.9-1.3-2.2-1.3-3.4v-5.2h-1.7v-4.3h1.7v-4.3h6.8v4.3h2.5L56.7,19.7z"/>
<path class="st0" d="M69.3,21.1c-0.6-0.7-1.5-1.1-2.4-1.1c-0.6,0-1.2,0.2-1.6,0.6c-0.8,0.8-0.8,2.2,0,3c0.5,0.4,1.1,0.6,1.7,0.6  c0.9,0,1.8-0.4,2.4-1.1l1.7,4.6c-1.4,1.1-3.3,1.7-5.1,1.6c-2.2,0.1-4.3-0.6-5.9-2c-1.5-1.4-2.3-3.3-2.2-5.3c-0.1-2,0.7-3.9,2.2-5.2  c1.6-1.4,3.8-2.1,5.9-2c1.9-0.1,3.7,0.4,5.2,1.6L69.3,21.1z"/>
<path class="st0" d="M83.5,15c3.1,0,4.7,2,4.7,5.9V29h-6.8v-7.2c0-0.9-0.4-1.3-1.1-1.3c-0.3,0-0.6,0.2-0.7,0.5  c-0.2,0.4-0.3,0.8-0.3,1.2V29h-6.8V10.3h6.8v7.4C80.1,16.1,81.7,15,83.5,15z"/>
<path class="st0" d="M98.8,15.4h6.8V29h-6.8v-1.5c-0.9,1.2-2.3,2-3.8,2c-1.6,0-3.1-0.7-4-2.1c-1.1-1.5-1.6-3.3-1.5-5.2  c-0.1-1.8,0.5-3.6,1.5-5.2c1.5-2.2,4.5-2.7,6.7-1.2c0.4,0.3,0.8,0.7,1.1,1.1V15.4z M96.6,23.7c0.2,0.5,0.7,0.7,1.2,0.6  c0.3-0.1,0.5-0.3,0.6-0.6c0.3-0.5,0.4-1,0.4-1.5c0-0.5-0.1-1-0.4-1.5c-0.2-0.5-0.7-0.7-1.2-0.6c-0.3,0.1-0.5,0.3-0.6,0.6  c-0.3,0.5-0.4,1-0.4,1.5C96.2,22.7,96.4,23.3,96.6,23.7z"/>
<path class="st0" d="M114.8,15.4V17c0.9-1.2,2.3-2,3.8-2c1.6,0,3.1,0.7,4,2.1c1,1.5,1.6,3.3,1.5,5.2c0.1,1.8-0.5,3.6-1.5,5.2  c-0.9,1.3-2.4,2.1-4,2.1c-1.5,0-2.9-0.7-3.8-2v8.3h-6.9V15.4H114.8z M115.2,23.7c0.2,0.4,0.5,0.6,0.9,0.6c0.4,0,0.7-0.3,0.9-0.6  c0.3-0.5,0.4-1,0.4-1.5c0-0.5-0.1-1-0.4-1.5c-0.2-0.4-0.5-0.6-0.9-0.6c-0.4,0-0.7,0.3-0.9,0.6c-0.3,0.5-0.4,1-0.4,1.5  C114.8,22.7,114.9,23.3,115.2,23.7z"/>
<path class="st0" d="M132.4,15.4V17c0.9-1.2,2.3-2,3.8-2c1.6,0,3.1,0.7,4,2.1c1,1.5,1.6,3.3,1.5,5.2c0.1,1.8-0.5,3.6-1.5,5.2  c-0.9,1.3-2.4,2.1-4,2.1c-1.5,0-2.9-0.7-3.8-2v8.3h-6.8V15.4H132.4z M132.8,23.7c0.2,0.4,0.5,0.6,0.9,0.6c0.4,0,0.7-0.3,0.9-0.6  c0.3-0.5,0.4-1,0.4-1.5c0-0.5-0.1-1-0.4-1.5c-0.2-0.4-0.5-0.6-0.9-0.6c-0.4,0-0.7,0.3-0.9,0.6c-0.2,0.5-0.4,1-0.4,1.5  C132.4,22.7,132.5,23.3,132.8,23.7z"/>
</svg>