<?xml version="1.0" encoding="UTF-8"?>
<svg width="248px" height="32
px" viewBox="0 0 1217 157" version="1.1" xmlns="http://www.w3.org/2000/svg" xmlns:xlink="http://www.w3.org/1999/xlink">
    <!-- Generator: Sketch 63.1 (92452) - https://sketch.com -->
    <title>Logo-normal</title>
    <desc>Created with Sketch.</desc>
    <g id="Page-1" stroke="none" stroke-width="1" fill="none" fill-rule="evenodd">
        <g id="Artboard" transform="translate(-483.000000, -239.000000)" fill-rule="nonzero">
            <g id="Group-3" transform="translate(0.000000, 119.000000)">
                <g id="Logo-normal" transform="translate(483.725691, 120.061412)">
                    <rect id="Rectangle" fill="#FFFFFF" x="941.805328" y="0" width="21.5269789" height="21.5269789"></rect>
                    <rect id="Rectangle" fill="#4650F0" x="990.24103" y="0" width="37.6722131" height="21.5269789"></rect>
                    <rect id="Rectangle" fill="#14F0AF" x="963.332307" y="0" width="26.9087237" height="21.5269789"></rect>
                    <path d="M63.4809038,27.1998165 C74.078319,27.1896324 84.2657382,31.1939259 91.8953336,38.3684661 L113.016639,28.6532709 C96.1972233,8.10827835 67.906009,0.172838059 42.4682986,8.86507309 C17.0305882,17.5573081 0,40.9795101 0,67.2718091 C0,93.5641081 17.0305882,116.98631 42.4682986,125.678545 C67.906009,134.37078 96.1972233,126.43534 113.016639,105.890347 L113.016639,105.890347 L113.016639,61.82773 L47.1171199,61.82773 L47.1171199,80.8246339 L91.5555106,80.8246339 L91.5555106,96.3026482 C78.1743582,108.702413 57.9568412,110.870957 42.1333538,101.603699 C26.3098663,92.3364421 18.768033,73.9102282 23.6971795,56.5604217 C28.626326,39.2106153 44.8154251,27.1998377 63.271782,27.1998165 L63.4809038,27.1998165 Z" id="Path" fill="#FFFFFF"></path>
                    <path d="M882.606136,99.8773432 L857.98821,37.6722131 L834.170433,37.6722131 L871.110658,125.640635 L871.110658,125.640635 C867.590001,138.159417 863.402553,140.932729 846.866135,136.837558 L841.26509,152.673947 C841.26509,152.673947 876.685031,166.566427 888.793957,138.159417 L931.041838,37.6722131 L907.250733,37.6722131 L882.606136,99.8773432 Z" id="Path" fill="#FFFFFF"></path>
                    <rect id="Rectangle" fill="#FFFFFF" x="801.879965" y="5.38174473" width="21.5269789" height="123.780129"></rect>
                    <path d="M515.218267,5.38174473 L468.211792,129.161874 L491.333184,129.161874 L501.866848,101.704999 L552.955119,101.704999 L563.488783,129.161874 L586.610176,129.161874 L539.419361,5.38174473 L515.218267,5.38174473 Z M508.898069,82.6091509 L527.331981,34.3683975 L545.765893,82.6091509 L508.898069,82.6091509 Z" id="Shape" fill="#FFFFFF"></path>
                    <rect id="Rectangle" fill="#FFFFFF" x="1006.38626" y="37.6722131" width="21.5269789" height="91.4896604"></rect>
                    <path d="M962.092925,37.6722131 L941.805328,37.6722131 L941.805328,103.500664 C941.805328,119.716693 951.786925,129.410783 967.283356,129.157011 C972.177425,129.015142 977.026225,128.160544 981.68181,126.619291 L984.55152,108.70299 C984.55152,108.70299 976.840736,110.454016 974.170658,110.885429 C967.982068,111.900517 962.092925,110.682411 962.092925,101.597374 L962.092925,56.0199271 L987.296459,56.0199271 L990.24103,37.6722131 L962.092925,37.6722131 Z" id="Path" fill="#FFFFFF"></path>
                    <path d="M740.076202,32.2904684 C709.391093,32.2904684 699.721746,50.3472353 699.721746,62.9974703 L720.18722,62.9974703 C720.18722,62.9974703 720.711304,51.3970473 740.023793,51.3970473 C755.536675,51.3970473 758.759791,62.6562814 758.759791,73.1281564 L758.759791,73.3118735 C743.325522,69.2963425 694.24507,65.4382833 694.24507,100.08208 C694.24507,116.459148 708.421538,129.161874 727.209944,129.161874 C741.465024,129.161874 749.87657,126.353626 758.995628,117.272752 C758.995628,123.099209 758.995628,127.009759 758.995628,127.009759 L780.352518,127.009759 L780.352518,70.1886827 C780.430657,51.8169722 770.735106,32.2904684 740.076202,32.2904684 Z M737.246149,112.548598 C723.357927,115.173128 715.522874,107.850689 715.81112,99.8721179 C716.256591,87.5368265 740.023793,82.0253133 758.864607,90.5025455 L758.864607,92.4184525 C757.213743,101.289364 746.967904,110.711427 737.246149,112.548598 Z" id="Shape" fill="#FFFFFF"></path>
                    <path d="M174.979339,32.2904684 C144.30338,32.2904684 134.636917,50.3472353 134.636917,62.9974703 L155.096288,62.9974703 C155.096288,62.9974703 155.646412,51.3970473 174.926946,51.3970473 C190.435202,51.3970473 193.683553,62.6562814 193.683553,73.1281564 L193.683553,73.3118735 C178.22769,69.2963425 129.161874,65.4382833 129.161874,100.08208 C129.161874,116.459148 143.360311,129.161874 162.116917,129.161874 C176.393944,129.161874 184.776785,126.353626 193.919321,117.272752 C193.919321,123.099209 193.919321,127.009759 193.919321,127.009759 L215.26958,127.009759 L215.26958,70.1886827 C215.321762,51.8169722 205.629102,32.2904684 174.979339,32.2904684 Z M172.15013,112.548598 C158.239853,115.173128 150.407136,107.850689 150.695296,99.8721179 C151.140635,87.5368265 174.90075,82.0253133 193.735946,90.5025455 L193.735946,92.4184525 C192.11177,101.289364 181.868987,110.711427 172.15013,112.548598 Z" id="Shape" fill="#FFFFFF"></path>
                    <path d="M322.921223,37.8370219 C313.449428,37.8419576 304.328984,41.2663547 297.385224,47.4248664 C291.612834,40.4586389 282.488471,36.8336794 273.251721,37.8370219 C263.831187,38.6718474 257.215644,44.2120531 252.955233,51.598994 L252.955233,39.7849481 L231.415023,39.7849481 L231.415023,129.161874 L252.955233,129.161874 L252.955233,80.6661005 C252.955233,59.1883169 267.64174,56.5320539 274.310208,58.6570643 C282.566407,61.1868385 285.239086,68.7761614 285.239086,79.4518089 L285.239086,129.161874 L306.779296,129.161874 L306.779296,73.8610077 C306.779296,65.3383576 314.006283,58.4293846 322.921223,58.4293846 C331.836162,58.4293846 339.063149,65.3383576 339.063149,73.8610077 L339.063149,129.161874 L360.576897,129.161874 L360.576897,73.8610077 C360.576897,53.9753849 343.722157,37.8509865 322.921223,37.8370219 L322.921223,37.8370219 Z" id="Path" fill="#FFFFFF"></path>
                    <path d="M1096.27416,52.8807488 C1105.33844,52.8773632 1113.79011,57.6153741 1118.73816,65.4740798 L1135.54814,54.4286791 C1124.31111,36.445701 1102.99489,28.2338554 1083.12892,34.2347371 C1063.26295,40.2356188 1049.56381,59.0244951 1049.44022,80.4389037 C1049.3183,101.853312 1062.80106,120.809033 1082.59684,127.053361 C1102.39262,133.297689 1123.80149,125.348092 1135.24389,107.504322 L1118.45927,96.4064491 C1111.22608,107.307213 1097.57547,111.430456 1085.81096,106.268053 C1074.04644,101.105649 1067.42151,88.0852704 1069.96605,75.1270763 C1072.51059,62.1688822 1083.52089,52.8564826 1096.29951,52.8545127 L1096.27416,52.8807488 Z" id="Path" fill="#FFFFFF"></path>
                    <path d="M644.071358,37.8074955 C633.273993,38.5229494 623.662352,44.6448601 618.762524,53.9273678 L618.762524,39.7560515 L597.373665,39.7560515 L597.373665,129.161874 L618.762524,129.161874 L618.762524,81.6373522 C618.762524,58.8620225 637.178516,56.5085718 645.071084,57.5208087 C653.673983,58.6595752 662.066413,64.3534076 662.066413,79.3598193 L662.066413,129.161874 L683.481581,129.161874 L683.481581,75.6398487 L683.481581,75.6398487 C683.402655,54.7624632 670.379918,35.8842455 644.071358,37.8074955 Z" id="Path" fill="#FFFFFF"></path>
                    <path d="M1182.50642,70.7872802 C1166.56192,65.7784988 1166.58802,60.8746134 1166.84898,57.5179431 C1167.05774,55.1315604 1169.69341,49.3098354 1179.68808,49.3098354 C1186.72483,49.0969045 1193.3136,52.7697323 1196.85908,58.8815904 L1213.35159,51.0143946 C1209.95914,44.6157419 1202.18261,32.2904684 1180.23609,32.2904684 C1153.64453,32.2904684 1147.40765,49.5720753 1147.40765,59.0651583 C1147.40765,78.5233561 1165.67467,84.423753 1172.72052,87.1248236 C1179.76637,89.8258942 1196.80689,93.8381641 1196.80689,102.203616 C1196.80689,110.569067 1186.96879,112.16873 1182.50642,112.16873 C1178.04405,112.16873 1166.84898,111.382011 1164.81351,101.207104 L1146.31163,101.207104 C1147.53813,113.715946 1154.14035,129.161874 1181.98451,129.161874 C1206.61888,129.161874 1216.27431,114.292873 1216.27431,100.315489 C1216.27431,82.3520581 1199.54694,76.4516612 1182.50642,70.7872802 Z" id="Path" fill="#FFFFFF"></path>
                    <path d="M422.427815,32.2904684 C396.073119,32.2904684 376.722131,53.9957669 376.722131,80.726171 C376.722131,107.456575 396.073119,129.161874 422.427815,129.161874 C438.167089,128.996587 452.867721,121.16457 461.93392,108.114311 L443.283303,98.800765 C438.433698,105.528725 430.747904,109.55308 422.531574,109.666569 C410.151487,109.371768 399.54569,100.597183 396.77349,88.3559123 L467.614706,88.3559123 C471.86881,60.5731301 453.036616,32.2904684 422.427815,32.2904684 Z M397.759197,69.4657252 C401.436288,58.8575 411.315206,51.7591877 422.401875,51.7591877 C433.488544,51.7591877 443.367462,58.8575 447.044554,69.4657252 L397.759197,69.4657252 Z" id="Shape" fill="#FFFFFF"></path>
                </g>
            </g>
        </g>
    </g>
</svg>