<?xml version="1.0" encoding="UTF-8"?>
<svg width="85px" height="90px" viewBox="0 0 85 90" version="1.1" xmlns="http://www.w3.org/2000/svg" xmlns:xlink="http://www.w3.org/1999/xlink">
    <!-- Generator: Sketch 64 (93537) - https://sketch.com -->
    <title>Group 21</title>
    <desc>Created with Sketch.</desc>
    <g id="Page-1" stroke="none" stroke-width="1" fill="none" fill-rule="evenodd">
        <g id="GA-Landingpage-V2b" transform="translate(-1020.000000, -5854.000000)">
            <g id="Feature-#1" transform="translate(-662.000000, 5114.000000)">
                <g id="Events-Copy-3" transform="translate(1682.000000, 740.000000)">
                    <g id="Group-5">
                        <g id="1">
                            <g id="Group-21">
                                <path d="M39.6882802,0.00399479917 C39.506,0.030034832 39.3302294,0.0821148976 39.1674796,0.160234996 L16.1480906,10.2116877 C16.0960105,10.2247085 16.0439304,10.2442373 15.9918504,10.2637677 L15.8356102,10.3158478 C15.6403108,10.4004775 15.4645401,10.5241681 15.3148095,10.6804082 C15.3148095,10.6999387 15.3148095,10.7129579 15.3148095,10.7324883 C15.1911189,10.8366484 15.0869588,10.960339 15.0023291,11.0970488 L0.367830692,30.1583528 C0.107430364,30.483854 -0.0227698,30.8874737 0.00327023275,31.3041142 L2.19063299,56.4067059 C2.19063299,56.4587859 2.19063299,56.510866 2.19063299,56.562946 L2.19063299,56.6671062 C2.19063299,56.6866366 2.19063299,56.6996558 2.19063299,56.7191862 C2.19063299,56.7517359 2.19063299,56.7907968 2.19063299,56.8233464 C2.21016343,56.8428768 2.22318261,56.855896 2.24271305,56.8754264 C2.24271305,56.9079761 2.24271305,56.9470369 2.24271305,56.9795866 C2.24271305,57.0121362 2.24271305,57.0511971 2.24271305,57.0837467 C2.2622435,57.1032771 2.27526268,57.1162963 2.29479312,57.1358268 C2.31432356,57.1553572 2.32734274,57.1683764 2.34687319,57.1879068 C2.35989403,57.2204565 2.37942281,57.2595173 2.39895325,57.292067 C2.4119741,57.3246166 2.43150288,57.3636775 2.45103332,57.3962271 C2.45103332,57.4157575 2.45103332,57.4287767 2.45103332,57.4483072 C2.47056376,57.4678376 2.48358294,57.4808568 2.50311338,57.5003872 C2.54868386,57.5719977 2.60076392,57.6436082 2.65935358,57.7087075 L16.9813716,77.2908122 C17.2027127,77.622823 17.5347219,77.8636929 17.9188128,77.967853 L39.0633194,83.1758596 C39.16097,83.22143 39.2716397,83.2539797 39.3757998,83.2800197 L39.4278799,83.2800197 C39.5776105,83.3190806 39.7403603,83.3386094 39.8966005,83.3320998 C39.9161309,83.3320998 39.9291501,83.3320998 39.9486806,83.3320998 C40.0528407,83.3255902 40.1570008,83.3060597 40.2611609,83.2800197 C40.3653211,83.2539797 40.4759908,83.22143 40.5736413,83.1758596 L61.770228,77.967853 C62.1543189,77.8636929 62.4863298,77.622823 62.7076692,77.2908122 L76.9255271,57.8128676 C77.0231777,57.7217283 77.114317,57.6175682 77.1859275,57.5003872 C77.2054579,57.4678376 77.2249883,57.4287767 77.2380075,57.3962271 C77.257538,57.3766967 77.2705572,57.3636775 77.2900876,57.344147 C77.309618,57.3246166 77.3226372,57.3115974 77.3421677,57.292067 C77.3421677,57.2725365 77.3421677,57.2595173 77.3421677,57.2399869 C77.3616981,57.2204565 77.3747173,57.2074373 77.3942477,57.1879068 C77.4137782,57.1553572 77.4333086,57.1162963 77.4463278,57.0837467 C77.4463278,57.0511971 77.4463278,57.0121362 77.4463278,56.9795866 C77.4463278,56.9600561 77.4463278,56.9470369 77.4463278,56.9275065 C77.4918983,56.7582471 77.5114287,56.5824765 77.4984079,56.4067059 L79.6857706,31.3041142 C79.7118106,30.8874737 79.5816105,30.483854 79.3212102,30.1583528 L64.6867117,11.1491288 C64.6867117,11.1295984 64.6867117,11.1165792 64.6867117,11.0970488 L64.6346317,10.9928886 C64.5890612,10.934299 64.5369811,10.8822189 64.4783915,10.8366484 C64.4653723,10.8040988 64.4458418,10.7650379 64.4263114,10.7324883 C64.4067809,10.7324883 64.3937618,10.7324883 64.3742313,10.7324883 C64.3612121,10.6999387 64.3416817,10.6608778 64.3221513,10.6283282 C64.3026208,10.6087977 64.2896016,10.5957786 64.2700712,10.5762481 C64.2375216,10.5567177 64.1984607,10.5371889 64.1659111,10.5241681 C64.1203406,10.4655784 64.0682605,10.4134983 64.0096709,10.3679279 C63.9771212,10.3483974 63.9380604,10.3288686 63.9055107,10.3158478 C63.8859803,10.3158478 63.8729611,10.3158478 63.8534307,10.3158478 L63.6971905,10.2637677 C63.6451104,10.2442373 63.5930303,10.2247085 63.5409503,10.2116877 L40.5215613,0.160234996 C40.2611609,0.0365449235 39.9747206,-0.0155353088 39.6882802,0.00399479917 Z M39.8445204,3.49335919 L60.8327869,12.6594507 L53.3332574,26.6689884 L26.3557834,26.6689884 L18.856254,12.6594507 L39.8445204,3.49335919 Z M16.2522507,14.8988936 L23.5434599,28.4917907 L15.3148095,53.5943823 L5.36751699,54.6359836 L3.3884745,31.7207548 L16.2522507,14.8988936 Z M63.4367901,14.8988936 L76.3005663,31.7207548 L74.3215239,54.6359836 L64.3742313,53.5943823 L56.145581,28.4917907 L59.5307852,22.1901027 L63.4367901,14.8988936 Z M26.5641037,30.0021126 L53.1249372,30.0021126 L61.2494274,54.5318235 L39.8445204,69.6350425 L18.4396135,54.5318235 L26.5641037,30.0021126 Z M45.833728,37.6578822 C44.6684361,37.6578822 43.8546855,37.8466721 43.0214044,38.1786829 C42.1881234,38.5106937 41.4915521,39.0249848 40.9902819,39.6890048 C40.3262619,40.3530265 40.0202911,41.1472466 39.6882802,41.9805277 C39.3562694,42.8138087 39.1674796,43.8423909 39.1674796,44.8449313 L42.1881234,44.8449313 C42.1881234,44.1809113 42.1751042,43.5233992 42.3443636,43.022129 C42.3443636,42.5208588 42.6959048,42.0130773 42.8651642,41.5118071 C43.1971751,41.0105369 43.5226746,40.6915469 43.8546855,40.5222858 C44.1866963,40.3530265 44.7009874,40.1577254 45.3650074,40.1577254 C46.029029,40.1577254 46.6995586,40.3530265 47.0315695,40.5222858 C47.5328397,40.6915469 47.8518313,41.0235561 48.0210907,41.3555669 C48.3531016,41.6875777 48.4898113,42.0130773 48.4898113,42.3450881 C48.6590724,42.8463584 48.6981316,43.1588387 48.6981316,43.4908496 C48.6981316,44.3241306 48.5093418,45.0207019 48.1773309,45.5219721 C47.8453201,46.0232424 47.3245194,46.4789438 46.8232492,46.980214 C46.321979,47.4814842 45.6644686,47.8330255 45.0004469,48.3342957 C44.3364269,48.8355659 43.8416663,49.1871072 43.1776446,49.6883774 C41.8430934,50.5216584 40.8210225,51.4916492 40.1570008,52.6569411 C39.3237198,53.822233 39.0112394,55.3260453 39.0112394,56.8233464 L51.8229355,56.8233464 L51.8229355,54.0110228 L42.656844,54.0110228 C42.826105,53.679012 43.001874,53.1451922 43.3338848,52.8131813 C43.6658957,52.4811705 44.0304561,52.1556709 44.5317263,51.8236601 L45.9899682,50.8341388 C46.6539898,50.502128 47.15526,50.1766284 47.6565303,49.8446176 C48.1578005,49.5126067 48.665582,49.1480463 49.1668522,48.6467761 C49.6681224,48.1455059 50.188923,47.6898045 50.5209339,47.1885342 C51.0222041,46.687264 51.3411957,46.1859938 51.5104551,45.5219721 C51.6797162,45.0207019 51.8229355,44.3241306 51.8229355,43.4908496 C51.8229355,42.8268296 51.6797162,42.1758288 51.5104551,41.5118071 C51.3411957,40.8477871 51.0222041,40.190275 50.5209339,39.6890048 C50.0196637,39.0249848 49.5314126,38.5106937 48.6981316,38.1786829 C48.0341116,37.8466721 46.9990199,37.6578822 45.833728,37.6578822 Z M31.8241903,37.8141224 C31.6549309,38.4781441 31.5312404,38.9924335 31.1992295,39.3244443 C30.8672187,39.8257145 30.346418,39.9819547 29.8451478,40.3139656 C29.3438776,40.4832266 28.8426074,40.6655069 28.1785857,40.8347662 C27.6773155,41.0040273 27.0198051,40.9910064 26.3557834,40.9910064 L26.3557834,43.3346094 L30.9909093,43.3346094 L30.9909093,56.6671062 L34.3240335,56.6671062 L34.3240335,37.8141224 L31.8241903,37.8141224 Z M16.0960105,56.8754264 L38.1779583,72.4994461 L38.1779583,79.530255 L19.3249746,74.8951291 L6.92991896,57.8649477 L16.0960105,56.8754264 Z M63.5930303,56.8754264 L72.7591219,57.8649477 L60.3640663,74.8951291 L41.5110825,79.530255 L41.5110825,72.4994461 L63.5930303,56.8754264 Z" id="Shape" fill-opacity="0.5" fill="#14F0AF" fill-rule="nonzero"></path>
                                <rect id="Rectangle" fill="#151829" x="5.75684355" y="37.5019975" width="78.3333333" height="49.1666667"></rect>
                                <rect id="Rectangle-Copy-3" fill="#151829" x="19.9235102" y="18.1080581" width="60" height="64.1666667"></rect>
                                <polygon id="Rectangle-Copy-4" fill="#151829" transform="translate(46.173510, 42.085331) rotate(23.000000) translate(-46.173510, -42.085331) " points="34.0901769 10.0019975 58.2568436 10.0019975 58.2568436 74.1686642 34.0901769 74.1686642"></polygon>
                                <path d="M44.6882802,6.67066147 C44.506,6.6967015 44.3302294,6.74878156 44.1674796,6.82690166 L21.1480906,16.8783543 C21.0960105,16.8913752 21.0439304,16.9109039 20.9918504,16.9304344 L20.8356102,16.9825145 C20.6403108,17.0671441 20.4645401,17.1908347 20.3148095,17.3470749 C20.3148095,17.3666054 20.3148095,17.3796245 20.3148095,17.399155 C20.1911189,17.5033151 20.0869588,17.6270057 20.0023291,17.7637154 L5.36783069,36.8250195 C5.10743036,37.1505207 4.9772302,37.5541404 5.00327023,37.9707809 L7.19063299,63.0733725 C7.19063299,63.1254526 7.19063299,63.1775326 7.19063299,63.2296127 L7.19063299,63.3337728 C7.19063299,63.3533033 7.19063299,63.3663225 7.19063299,63.3858529 C7.19063299,63.4184025 7.19063299,63.4574634 7.19063299,63.490013 C7.21016343,63.5095435 7.22318261,63.5225627 7.24271305,63.5420931 C7.24271305,63.5746427 7.24271305,63.6137036 7.24271305,63.6462532 C7.24271305,63.6788029 7.24271305,63.7178637 7.24271305,63.7504134 C7.2622435,63.7699438 7.27526268,63.782963 7.29479312,63.8024934 C7.31432356,63.8220239 7.32734274,63.8350431 7.34687319,63.8545735 C7.35989403,63.8871231 7.37942281,63.926184 7.39895325,63.9587336 C7.4119741,63.9912833 7.43150288,64.0303441 7.45103332,64.0628938 C7.45103332,64.0824242 7.45103332,64.0954434 7.45103332,64.1149738 C7.47056376,64.1345043 7.48358294,64.1475235 7.50311338,64.1670539 C7.54868386,64.2386644 7.60076392,64.3102749 7.65935358,64.3753742 L21.9813716,83.9574788 C22.2027127,84.2894897 22.5347219,84.5303595 22.9188128,84.6345197 L44.0633194,89.8425262 C44.16097,89.8880967 44.2716397,89.9206463 44.3757998,89.9466864 L44.4278799,89.9466864 C44.5776105,89.9857473 44.7403603,90.005276 44.8966005,89.9987664 C44.9161309,89.9987664 44.9291501,89.9987664 44.9486806,89.9987664 C45.0528407,89.9922568 45.1570008,89.9727264 45.2611609,89.9466864 C45.3653211,89.9206463 45.4759908,89.8880967 45.5736413,89.8425262 L66.770228,84.6345197 C67.1543189,84.5303595 67.4863298,84.2894897 67.7076692,83.9574788 L81.9255271,64.4795343 C82.0231777,64.388395 82.114317,64.2842349 82.1859275,64.1670539 C82.2054579,64.1345043 82.2249883,64.0954434 82.2380075,64.0628938 C82.257538,64.0433633 82.2705572,64.0303441 82.2900876,64.0108137 C82.309618,63.9912833 82.3226372,63.9782641 82.3421677,63.9587336 C82.3421677,63.9392032 82.3421677,63.926184 82.3421677,63.9066536 C82.3616981,63.8871231 82.3747173,63.8741039 82.3942477,63.8545735 C82.4137782,63.8220239 82.4333086,63.782963 82.4463278,63.7504134 C82.4463278,63.7178637 82.4463278,63.6788029 82.4463278,63.6462532 C82.4463278,63.6267228 82.4463278,63.6137036 82.4463278,63.5941732 C82.4918983,63.4249138 82.5114287,63.2491432 82.4984079,63.0733725 L84.6857706,37.9707809 C84.7118106,37.5541404 84.5816105,37.1505207 84.3212102,36.8250195 L69.6867117,17.8157955 C69.6867117,17.7962651 69.6867117,17.7832459 69.6867117,17.7637154 L69.6346317,17.6595553 C69.5890612,17.6009657 69.5369811,17.5488856 69.4783915,17.5033151 C69.4653723,17.4707655 69.4458418,17.4317046 69.4263114,17.399155 C69.4067809,17.399155 69.3937618,17.399155 69.3742313,17.399155 C69.3612121,17.3666054 69.3416817,17.3275445 69.3221513,17.2949948 C69.3026208,17.2754644 69.2896016,17.2624452 69.2700712,17.2429148 C69.2375216,17.2233843 69.1984607,17.2038556 69.1659111,17.1908347 C69.1203406,17.1322451 69.0682605,17.080165 69.0096709,17.0345945 C68.9771212,17.0150641 68.9380604,16.9955353 68.9055107,16.9825145 C68.8859803,16.9825145 68.8729611,16.9825145 68.8534307,16.9825145 L68.6971905,16.9304344 C68.6451104,16.9109039 68.5930303,16.8913752 68.5409503,16.8783543 L45.5215613,6.82690166 C45.2611609,6.70321159 44.9747206,6.65113136 44.6882802,6.67066147 Z M44.8445204,10.1600259 L65.8327869,19.3261174 L58.3332574,33.3356551 L31.3557834,33.3356551 L23.856254,19.3261174 L44.8445204,10.1600259 Z M21.2522507,21.5655602 L28.5434599,35.1584574 L20.3148095,60.261049 L10.367517,61.3026503 L8.3884745,38.3874214 L21.2522507,21.5655602 Z M68.4367901,21.5655602 L81.3005663,38.3874214 L79.3215239,61.3026503 L69.3742313,60.261049 L61.145581,35.1584574 L64.5307852,28.8567694 L68.4367901,21.5655602 Z M31.5641037,36.6687793 L58.1249372,36.6687793 L66.2494274,61.1984902 L44.8445204,76.3017092 L23.4396135,61.1984902 L31.5641037,36.6687793 Z M50.833728,44.3245489 C49.6684361,44.3245489 48.8546855,44.5133387 48.0214044,44.8453496 C47.1881234,45.1773604 46.4915521,45.6916515 45.9902819,46.3556715 C45.3262619,47.0196931 45.0202911,47.8139133 44.6882802,48.6471943 C44.3562694,49.4804754 44.1674796,50.5090575 44.1674796,51.511598 L47.1881234,51.511598 C47.1881234,50.847578 47.1751042,50.1900659 47.3443636,49.6887957 C47.3443636,49.1875254 47.6959048,48.679744 47.8651642,48.1784738 C48.1971751,47.6772035 48.5226746,47.3582136 48.8546855,47.1889525 C49.1866963,47.0196931 49.7009874,46.824392 50.3650074,46.824392 C51.029029,46.824392 51.6995586,47.0196931 52.0315695,47.1889525 C52.5328397,47.3582136 52.8518313,47.6902227 53.0210907,48.0222336 C53.3531016,48.3542444 53.4898113,48.679744 53.4898113,49.0117548 C53.6590724,49.513025 53.6981316,49.8255054 53.6981316,50.1575162 C53.6981316,50.9907973 53.5093418,51.6873686 53.1773309,52.1886388 C52.8453201,52.689909 52.3245194,53.1456104 51.8232492,53.6468806 C51.321979,54.1481509 50.6644686,54.4996921 50.0004469,55.0009623 C49.3364269,55.5022326 48.8416663,55.8537738 48.1776446,56.3550441 C46.8430934,57.1883251 45.8210225,58.1583159 45.1570008,59.3236078 C44.3237198,60.4888997 44.0112394,61.992712 44.0112394,63.490013 L56.8229355,63.490013 L56.8229355,60.6776895 L47.656844,60.6776895 C47.826105,60.3456787 48.001874,59.8118588 48.3338848,59.479848 C48.6658957,59.1478372 49.0304561,58.8223376 49.5317263,58.4903267 L50.9899682,57.5008055 C51.6539898,57.1687947 52.15526,56.8432951 52.6565303,56.5112843 C53.1578005,56.1792734 53.665582,55.814713 54.1668522,55.3134427 C54.6681224,54.8121725 55.188923,54.3564711 55.5209339,53.8552009 C56.0222041,53.3539307 56.3411957,52.8526605 56.5104551,52.1886388 C56.6797162,51.6873686 56.8229355,50.9907973 56.8229355,50.1575162 C56.8229355,49.4934962 56.6797162,48.8424954 56.5104551,48.1784738 C56.3411957,47.5144538 56.0222041,46.8569417 55.5209339,46.3556715 C55.0196637,45.6916515 54.5314126,45.1773604 53.6981316,44.8453496 C53.0341116,44.5133387 51.9990199,44.3245489 50.833728,44.3245489 Z M36.8241903,44.4807891 C36.6549309,45.1448108 36.5312404,45.6591002 36.1992295,45.991111 C35.8672187,46.4923812 35.346418,46.6486214 34.8451478,46.9806322 C34.3438776,47.1498933 33.8426074,47.3321735 33.1785857,47.5014329 C32.6773155,47.6706939 32.0198051,47.6576731 31.3557834,47.6576731 L31.3557834,50.0012761 L35.9909093,50.0012761 L35.9909093,63.3337728 L39.3240335,63.3337728 L39.3240335,44.4807891 L36.8241903,44.4807891 Z M21.0960105,63.5420931 L43.1779583,79.1661128 L43.1779583,86.1969216 L24.3249746,81.5617958 L11.929919,64.5316144 L21.0960105,63.5420931 Z M68.5930303,63.5420931 L77.7591219,64.5316144 L65.3640663,81.5617958 L46.5110825,86.1969216 L46.5110825,79.1661128 L68.5930303,63.5420931 Z" id="Shape" fill="#FFFFFF" fill-rule="nonzero"></path>
                            </g>
                        </g>
                    </g>
                </g>
            </g>
        </g>
    </g>
</svg>