<?xml version="1.0" encoding="UTF-8"?>
<svg width="98px" height="99px" viewBox="0 0 98 99" version="1.1" xmlns="http://www.w3.org/2000/svg" xmlns:xlink="http://www.w3.org/1999/xlink">
    <!-- Generator: Sketch 64 (93537) - https://sketch.com -->
    <title>Group 20</title>
    <desc>Created with Sketch.</desc>
    <g id="Page-1" stroke="none" stroke-width="1" fill="none" fill-rule="evenodd">
        <g id="GA-Landingpage-V2b" transform="translate(-1080.000000, -5521.000000)">
            <g id="Feature-#1" transform="translate(-662.000000, 5114.000000)">
                <g id="Events-Copy-2" transform="translate(1742.000000, 407.000000)">
                    <g id="Group-5">
                        <g id="1">
                            <g id="Group-20">
                                <path d="M15.5785182,0 C13.7555024,0 12.2242202,1.158374 11.2816432,2.546875 C10.3390662,3.935376 9.73792125,5.6374238 9.26992445,7.5820312 C8.46220125,10.9382606 8.25962365,15.1591158 8.17617445,19.316406 C7.82404285,19.123894 7.58229585,18.834562 7.21133085,18.675782 C5.61225965,17.991342 3.54812005,17.50473 1.78554945,18.816406 C1.01368345,19.390358 0.322637046,20.420112 0.0980494464,21.695312 C-0.126537954,22.970512 0.0303454464,24.45424 0.613674446,26.316406 L0.613674446,26.320312 C1.40137905,28.818462 2.84371205,31.565518 4.69570565,34.238282 C5.79967165,35.830888 7.13181905,37.250488 8.53945565,38.453124 C8.32214765,39.44802 8.08701605,40.872914 8.00039325,42.851562 L8.00039325,42.894532 L8.00039325,43.121094 C8.00039325,43.71162 8.06978045,44.12305 8.08242445,44.363282 L8.08633085,44.390624 L8.08633085,44.417968 C8.11154065,44.733094 8.14086205,45.225434 8.19961205,45.738282 C8.19961205,46.25954 8.30036405,46.475602 8.29336205,46.398438 C9.08384325,51.623102 11.6992718,56.235652 15.652737,59.933594 L20.5433612,65.371094 C23.3913612,68.395094 25.3532372,83.076 25.9652372,92 L29.9769552,92 C29.7785432,89.055746 28.6159632,73.85618 25.4808612,66.136718 C30.8417652,68.39987 37.1726132,69.726956 44.2113312,69.9375 C44.8039952,69.957952 46.1214872,70 46.1214872,70 L46.1566432,70 L46.1917992,70 C53.6707292,69.958742 60.4308952,68.704516 66.1292992,66.394532 C63.4125212,71.940952 62.8326412,80.32302 62.0863312,91.117188 L62.0238312,92 L66.0316432,92 L66.0746112,91.390624 C66.9466112,78.796626 67.5734252,69.696406 71.4574252,65.566406 L76.5980492,59.925782 L76.5355492,59.867188 C80.4422872,56.150806 83.0269792,51.509046 83.7621112,46.195312 L83.7816432,46.0625 C83.7816432,46.0625 83.7816432,46.058594 83.7816432,46.058594 L83.7816432,46.054688 L83.7816432,45.921876 C83.7816432,46.548542 83.8011752,46.507454 83.8011752,45.800782 C83.8634952,45.240386 83.8873952,44.713082 83.9144552,44.347656 L83.9144552,44.328124 L83.9183612,44.3125 C83.9299312,44.100218 84.0003932,43.703316 84.0003932,43.121094 L84.0003932,42.941406 C84.0003932,40.934222 83.7406832,39.466068 83.4847692,38.429688 C84.8827592,37.244726 86.2073132,35.830838 87.3050812,34.238282 L87.3089872,34.234376 C89.1594052,31.563102 90.5998732,28.816986 91.3871112,26.320312 L91.3871112,26.316406 C91.9704412,24.45424 92.1273252,22.970512 91.9027372,21.695312 C91.6781492,20.420112 90.9871032,19.390358 90.2152372,18.816406 C88.4526672,17.504726 86.3885272,17.991338 84.7894552,18.675782 C84.4184912,18.834562 84.1767432,19.123894 83.8246112,19.316406 C83.7410692,15.1592998 83.5385852,10.9382606 82.7308612,7.5820312 C82.2628652,5.6374238 81.6617212,3.935376 80.7191432,2.546875 C79.7765652,1.158374 78.2452832,0 76.4222692,0 C75.1393172,0 74.1274132,0.8021804 73.5316432,1.5898438 C72.9358732,2.377507 72.5524652,3.2654502 72.2152372,4.2539062 C71.5407812,6.2308182 71.1109752,8.6354848 70.7894552,11.046875 C70.4679372,13.4582652 70.2730172,15.8590682 70.1566432,17.695312 C70.1262972,18.17418 70.1146352,18.482764 70.0941432,18.875 C63.4244952,13.6030352 54.9690832,10 46.0003932,10 C37.0317032,10 28.5762912,13.6030352 21.9066432,18.875 C21.8861552,18.482764 21.8744992,18.17418 21.8441432,17.695312 C21.7277792,15.8590682 21.5328492,13.4582652 21.2113312,11.046875 C20.8898112,8.6354848 20.4600052,6.2308182 19.7855492,4.2539062 C19.4483212,3.2654502 19.0649132,2.377507 18.4691432,1.5898438 C17.8733732,0.8021804 16.8614692,0 15.5785182,0 Z M15.3597682,4.1757812 C15.5339702,4.4417478 15.7681694,4.8737416 15.996487,5.5429688 C16.5107812,7.0504318 16.9430052,9.3020152 17.2464872,11.578125 C17.5499692,13.8542348 17.7395812,16.172182 17.8519552,17.945312 C17.9081352,18.831878 17.9463432,19.584352 17.9691432,20.125 C17.9919592,20.665648 18.0003932,21.130834 18.0003932,21 L18.0003932,22.34375 C14.4206342,25.937392 11.6131142,30.014456 9.89101825,34.25 C9.19611925,33.53804 8.54319165,32.766532 7.98476825,31.960938 C6.31790125,29.555346 5.04286405,27.062372 4.43008085,25.121094 C3.97340985,23.66326 3.96904325,22.790424 4.03945565,22.390624 C4.10986765,21.990826 4.16413425,22.029486 4.17226825,22.023438 L4.17617445,22.023438 C4.13360445,22.055118 4.63118285,21.920998 5.63711205,22.351562 C6.64304105,22.782124 7.84756985,23.623358 8.63320565,24.359376 L12.0003932,27.515624 L12.0003932,21.179688 C12.0003932,16.557146 12.3565432,11.8603162 13.1605494,8.5195312 C13.5625526,6.8491388 14.092814,5.5257178 14.590237,4.7929688 C14.977494,4.2225042 15.1524588,4.2198548 15.3597682,4.1757812 Z M76.6410172,4.1757812 C76.8483292,4.2198552 77.0232932,4.2225052 77.4105492,4.7929688 C77.9079732,5.5257178 78.4382332,6.8491388 78.8402372,8.5195312 C79.6442432,11.8603162 80.0003932,16.557146 80.0003932,21.179688 L80.0003932,27.515624 L83.3675812,24.359376 C84.1532172,23.623356 85.3577452,22.782124 86.3636752,22.351562 C87.3696032,21.921002 87.8671832,22.055118 87.8246112,22.023438 L87.8285172,22.023438 C87.8367192,22.029438 87.8909112,21.99082 87.9613312,22.390624 C88.0317512,22.790424 88.0273712,23.66326 87.5707052,25.121094 C86.9579232,27.062372 85.6828852,29.555346 84.0160172,31.960938 L84.0160172,31.964844 L84.0121112,31.964844 C83.4055472,32.845342 82.5653392,33.489476 81.8011752,34.246094 C80.0959692,30.055136 77.5350012,26.01412 74.0003932,22.460938 L74.0003932,21 C74.0003932,21.13084 74.0087832,20.665648 74.0316432,20.125 C74.0544432,19.584352 74.0926512,18.831878 74.1488312,17.945312 C74.2612112,16.172182 74.4508172,13.8542348 74.7542992,11.578125 C75.0577812,9.3020152 75.4900052,7.0504318 76.0042992,5.5429688 C76.2326172,4.8737416 76.4668152,4.4417478 76.6410172,4.1757812 Z M46.0003932,14 C55.2488152,14 64.2181512,18.434452 70.6136752,24.601562 C74.8921892,28.708936 77.9746312,33.59044 79.2738312,38.238282 L79.7269552,39.863282 C79.8675772,40.584802 80.0003932,41.574802 80.0003932,42.941406 L80.0003932,43.121094 C80.0003932,43.258874 79.9504472,43.582378 79.9222692,44.089844 C79.8783692,44.702776 79.8716712,45.19028 79.8246112,45.496094 L79.8011752,45.648438 L79.8011752,45.800782 C79.8011752,45.723122 79.7977952,45.74856 79.7972692,45.691406 L79.7972692,45.667968 C79.7938472,45.377218 79.7892672,45.40337 79.7855492,45.734376 C78.9297712,51.71073 75.3771232,56.627306 69.5824252,60.207032 C63.7616752,63.802846 55.6741512,65.945184 46.1839872,66 C46.1066072,65.9976 44.8978592,65.960366 44.3480492,65.941406 L44.3441432,65.941406 L44.3402372,65.941406 C35.2351612,65.670192 27.5488792,63.413326 22.0121112,59.835938 C16.4753452,56.25855 13.0867208,51.44934 12.2386744,45.765624 L12.230862,45.714844 L12.2230494,45.667968 C12.1821986,45.463714 12.1818028,45.440686 12.1878932,45.496094 L12.1722682,45.410156 C12.1310902,45.16309 12.1218122,44.723858 12.0785182,44.15625 L12.074612,44.101562 C12.046648,43.626656 12.0003932,43.281616 12.0003932,43.121094 L12.0003932,43.027344 C12.1428712,39.772834 12.683987,38.308594 12.683987,38.308594 L12.7074244,38.25 L12.7230494,38.1875 C14.041045,33.556222 17.1221612,28.714194 21.3871112,24.601562 C27.7826352,18.434452 36.7519712,14 46.0003932,14 Z" id="Shape-Copy" fill-opacity="0.5" fill="#14F0AF" fill-rule="nonzero"></path>
                                <rect id="Rectangle" fill="#151829" x="20" y="36" width="65" height="63"></rect>
                                <rect id="Rectangle" fill="#151829" x="15" y="33" width="67" height="22"></rect>
                                <path d="M21.5783216,7 C19.7553058,7 18.2240236,8.158374 17.2814466,9.546875 C16.3388696,10.935376 15.7377246,12.6374238 15.2697278,14.5820312 C14.4620046,17.9382606 14.259427,22.1591158 14.1759778,26.316406 C13.8238462,26.123894 13.5820992,25.834562 13.2111342,25.675782 C11.612063,24.991342 9.54792342,24.50473 7.78535282,25.816406 C7.01348682,26.390358 6.32244042,27.420112 6.09785282,28.695312 C5.87326542,29.970512 6.03014882,31.45424 6.61347782,33.316406 L6.61347782,33.320312 C7.40118242,35.818462 8.84351542,38.565518 10.695509,41.238282 C11.799475,42.830888 13.1316224,44.250488 14.539259,45.453124 C14.321951,46.44802 14.0868194,47.872914 14.0001966,49.851562 L14.0001966,49.894532 L14.0001966,50.121094 C14.0001966,50.71162 14.0695838,51.12305 14.0822278,51.363282 L14.0861342,51.390624 L14.0861342,51.417968 C14.111344,51.733094 14.1406654,52.225434 14.1994154,52.738282 C14.1994154,53.25954 14.3001674,53.475602 14.2931654,53.398438 C15.0836466,58.623102 17.6990752,63.235652 21.6525404,66.933594 L26.5431646,72.371094 C29.3911646,75.395094 31.3530406,90.076 31.9650406,99 L35.9767586,99 C35.7783466,96.055746 34.6157666,80.85618 31.4806646,73.136718 C36.8415686,75.39987 43.1724166,76.726956 50.2111346,76.9375 C50.8037986,76.957952 52.1212906,77 52.1212906,77 L52.1564466,77 L52.1916026,77 C59.6705326,76.958742 66.4306986,75.704516 72.1291026,73.394532 C69.4123246,78.940952 68.8324446,87.32302 68.0861346,98.117188 L68.0236346,99 L72.0314466,99 L72.0744146,98.390624 C72.9464146,85.796626 73.5732286,76.696406 77.4572286,72.566406 L82.5978526,66.925782 L82.5353526,66.867188 C86.4420906,63.150806 89.0267826,58.509046 89.7619146,53.195312 L89.7814466,53.0625 C89.7814466,53.0625 89.7814466,53.058594 89.7814466,53.058594 L89.7814466,53.054688 L89.7814466,52.921876 C89.7814466,53.548542 89.8009786,53.507454 89.8009786,52.800782 C89.8632986,52.240386 89.8871986,51.713082 89.9142586,51.347656 L89.9142586,51.328124 L89.9181646,51.3125 C89.9297346,51.100218 90.0001966,50.703316 90.0001966,50.121094 L90.0001966,49.941406 C90.0001966,47.934222 89.7404866,46.466068 89.4845726,45.429688 C90.8825626,44.244726 92.2071166,42.830838 93.3048846,41.238282 L93.3087906,41.234376 C95.1592086,38.563102 96.5996766,35.816986 97.3869146,33.320312 L97.3869146,33.316406 C97.9702446,31.45424 98.1271286,29.970512 97.9025406,28.695312 C97.6779526,27.420112 96.9869066,26.390358 96.2150406,25.816406 C94.4524706,24.504726 92.3883306,24.991338 90.7892586,25.675782 C90.4182946,25.834562 90.1765466,26.123894 89.8244146,26.316406 C89.7408726,22.1592998 89.5383886,17.9382606 88.7306646,14.5820312 C88.2626686,12.6374238 87.6615246,10.935376 86.7189466,9.546875 C85.7763686,8.158374 84.2450866,7 82.4220726,7 C81.1391206,7 80.1272166,7.8021804 79.5314466,8.5898438 C78.9356766,9.377507 78.5522686,10.2654502 78.2150406,11.2539062 C77.5405846,13.2308182 77.1107786,15.6354848 76.7892586,18.046875 C76.4677406,20.4582652 76.2728206,22.8590682 76.1564466,24.695312 C76.1261006,25.17418 76.1144386,25.482764 76.0939466,25.875 C69.4242986,20.6030352 60.9688866,17 52.0001966,17 C43.0315066,17 34.5760946,20.6030352 27.9064466,25.875 C27.8859586,25.482764 27.8743026,25.17418 27.8439466,24.695312 C27.7275826,22.8590682 27.5326526,20.4582652 27.2111346,18.046875 C26.8896146,15.6354848 26.4598086,13.2308182 25.7853526,11.2539062 C25.4481246,10.2654502 25.0647166,9.377507 24.4689466,8.5898438 C23.8731766,7.8021804 22.8612726,7 21.5783216,7 Z M21.3595716,11.1757812 C21.5337736,11.4417478 21.7679728,11.8737416 21.9962904,12.5429688 C22.5105846,14.0504318 22.9428086,16.3020152 23.2462906,18.578125 C23.5497726,20.8542348 23.7393846,23.172182 23.8517586,24.945312 C23.9079386,25.831878 23.9461466,26.584352 23.9689466,27.125 C23.9917626,27.665648 24.0001966,28.130834 24.0001966,28 L24.0001966,29.34375 C20.4204376,32.937392 17.6129176,37.014456 15.8908216,41.25 C15.1959226,40.53804 14.542995,39.766532 13.9845716,38.960938 C12.3177046,36.555346 11.0426674,34.062372 10.4298842,32.121094 C9.97321322,30.66326 9.96884662,29.790424 10.039259,29.390624 C10.109671,28.990826 10.1639376,29.029486 10.1720716,29.023438 L10.1759778,29.023438 C10.1334078,29.055118 10.6309862,28.920998 11.6369154,29.351562 C12.6428444,29.782124 13.8473732,30.623358 14.633009,31.359376 L18.0001966,34.515624 L18.0001966,28.179688 C18.0001966,23.557146 18.3563466,18.8603162 19.1603528,15.5195312 C19.562356,13.8491388 20.0926174,12.5257178 20.5900404,11.7929688 C20.9772974,11.2225042 21.1522622,11.2198548 21.3595716,11.1757812 Z M82.6408206,11.1757812 C82.8481326,11.2198552 83.0230966,11.2225052 83.4103526,11.7929688 C83.9077766,12.5257178 84.4380366,13.8491388 84.8400406,15.5195312 C85.6440466,18.8603162 86.0001966,23.557146 86.0001966,28.179688 L86.0001966,34.515624 L89.3673846,31.359376 C90.1530206,30.623356 91.3575486,29.782124 92.3634786,29.351562 C93.3694066,28.921002 93.8669866,29.055118 93.8244146,29.023438 L93.8283206,29.023438 C93.8365226,29.029438 93.8907146,28.99082 93.9611346,29.390624 C94.0315546,29.790424 94.0271746,30.66326 93.5705086,32.121094 C92.9577266,34.062372 91.6826886,36.555346 90.0158206,38.960938 L90.0158206,38.964844 L90.0119146,38.964844 C89.4053506,39.845342 88.5651426,40.489476 87.8009786,41.246094 C86.0957726,37.055136 83.5348046,33.01412 80.0001966,29.460938 L80.0001966,28 C80.0001966,28.13084 80.0085866,27.665648 80.0314466,27.125 C80.0542466,26.584352 80.0924546,25.831878 80.1486346,24.945312 C80.2610146,23.172182 80.4506206,20.8542348 80.7541026,18.578125 C81.0575846,16.3020152 81.4898086,14.0504318 82.0041026,12.5429688 C82.2324206,11.8737416 82.4666186,11.4417478 82.6408206,11.1757812 Z M52.0001966,21 C61.2486186,21 70.2179546,25.434452 76.6134786,31.601562 C80.8919926,35.708936 83.9744346,40.59044 85.2736346,45.238282 L85.7267586,46.863282 C85.8673806,47.584802 86.0001966,48.574802 86.0001966,49.941406 L86.0001966,50.121094 C86.0001966,50.258874 85.9502506,50.582378 85.9220726,51.089844 C85.8781726,51.702776 85.8714746,52.19028 85.8244146,52.496094 L85.8009786,52.648438 L85.8009786,52.800782 C85.8009786,52.723122 85.7975986,52.74856 85.7970726,52.691406 L85.7970726,52.667968 C85.7936506,52.377218 85.7890706,52.40337 85.7853526,52.734376 C84.9295746,58.71073 81.3769266,63.627306 75.5822286,67.207032 C69.7614786,70.802846 61.6739546,72.945184 52.1837906,73 C52.1064106,72.9976 50.8976626,72.960366 50.3478526,72.941406 L50.3439466,72.941406 L50.3400406,72.941406 C41.2349646,72.670192 33.5486826,70.413326 28.0119146,66.835938 C22.4751486,63.25855 19.0865242,58.44934 18.2384778,52.765624 L18.2306654,52.714844 L18.2228528,52.667968 C18.182002,52.463714 18.1816062,52.440686 18.1876966,52.496094 L18.1720716,52.410156 C18.1308936,52.16309 18.1216156,51.723858 18.0783216,51.15625 L18.0744154,51.101562 C18.0464514,50.626656 18.0001966,50.281616 18.0001966,50.121094 L18.0001966,50.027344 C18.1426746,46.772834 18.6837904,45.308594 18.6837904,45.308594 L18.7072278,45.25 L18.7228528,45.1875 C20.0408484,40.556222 23.1219646,35.714194 27.3869146,31.601562 C33.7824386,25.434452 42.7517746,21 52.0001966,21 Z M52.0001966,33 C49.7910576,33 48.0001966,34.790861 48.0001966,37 C48.0001966,39.209139 49.7910576,41 52.0001966,41 C54.2093356,41 56.0001966,39.209139 56.0001966,37 C56.0001966,34.790861 54.2093356,33 52.0001966,33 Z M36.0001966,41 C32.6861966,41 30.0001966,43.686 30.0001966,47 C30.0001966,50.314 32.6861966,53 36.0001966,53 C39.3141966,53 42.0001966,50.314 42.0001966,47 C42.0001966,43.686 39.3141966,41 36.0001966,41 Z M68.0001966,41 C64.6861966,41 62.0001966,43.686 62.0001966,47 C62.0001966,50.314 64.6861966,53 68.0001966,53 C71.3141966,53 74.0001966,50.314 74.0001966,47 C74.0001966,43.686 71.3141966,41 68.0001966,41 Z M34.0001966,43 C35.1041966,43 36.0001966,43.896 36.0001966,45 C36.0001966,46.104 35.1041966,47 34.0001966,47 C32.8961966,47 32.0001966,46.104 32.0001966,45 C32.0001966,43.896 32.8961966,43 34.0001966,43 Z M66.0001966,43 C67.1041966,43 68.0001966,43.896 68.0001966,45 C68.0001966,46.104 67.1041966,47 66.0001966,47 C64.8961966,47 64.0001966,46.104 64.0001966,45 C64.0001966,43.896 64.8961966,43 66.0001966,43 Z M50.1251966,53.003906 C48.0264066,52.999906 46.0892286,52.983106 44.3126966,53.226562 C42.5349726,53.470184 40.7901226,53.989512 39.5080086,55.351562 C38.5006366,56.421896 38.0029286,57.894502 38.0001966,59.375 L38.0001966,59.378906 C38.0001966,62.274602 39.6818746,64.791146 42.0744146,66.4375 C44.4669546,68.08376 47.6121346,69 51.0783206,69 L52.9259786,69 C56.3912826,69 59.5340426,68.084056 61.9259786,66.4375 C64.3179126,64.790944 65.9990006,62.271184 65.9962939,59.375 C65.9934906,57.892042 65.4910186,56.424008 64.4884786,55.355468 L64.4884786,55.351562 C63.2068546,53.988368 61.4617546,53.470178 59.6837906,53.226562 C57.9070186,52.98311 55.9700826,52.999894 53.8712906,53.003906 L53.8673846,53.003906 L50.1291026,53.003906 L50.1251966,53.003906 Z M50.1212906,57.003906 L50.1251966,57.003906 L53.8712906,57.003906 L53.8751966,57.003906 C55.9767806,56.999906 57.7987866,57.00361 59.1408206,57.1875 C60.4809666,57.37112 61.2175486,57.719558 61.5705086,58.09375 C61.8425506,58.384546 61.9950306,58.699638 61.9962906,59.382812 C61.9962906,60.75922 61.2470666,62.049582 59.6564466,63.144532 C58.0642866,64.240468 55.6726726,65 52.9259786,65 L51.0783206,65 C48.3305126,65 45.9369066,64.240678 44.3439466,63.144532 C42.7509866,62.048384 42.0001966,60.75721 42.0001966,59.378906 C42.0021966,58.695334 42.1501966,58.382624 42.4220726,58.09375 C42.7759586,57.7178 43.5138906,57.371378 44.8556646,57.1875 C46.1974406,57.00362 48.0197066,56.999906 50.1212906,57.003906 Z M52.0001966,83 C45.1281966,83 40.1261966,88.548 40.0001966,99 L44.0041026,99 C44.1161026,90.992 47.5101966,87 52.0001966,87 C56.4901966,87 59.8842906,90.992 59.9962906,99 L64.0001966,99 C63.8741966,88.548 58.8721966,83 52.0001966,83 Z" id="Shape" fill="#FFFFFF" fill-rule="nonzero"></path>
                            </g>
                        </g>
                    </g>
                </g>
            </g>
        </g>
    </g>
</svg>